<?xml version='1.0' encoding='UTF-8'?>
<!DOCTYPE svg PUBLIC "-//W3C//DTD SVG 1.0//EN" "http://www.w3.org/TR/2001/REC-SVG-20010904/DTD/svg10.dtd">
<svg viewBox="0 0 896 552" xmlns="http://www.w3.org/2000/svg" xmlns:inkspace="http://www.inkscape.org/namespaces/inkscape" xmlns:xlink="http://www.w3.org/1999/xlink">
  <defs id="defs_block">
    <filter height="1.504" id="filter_blur" inkspace:collect="always" width="1.1575" x="-0.07875" y="-0.252">
      <feGaussianBlur id="feGaussianBlur3780" inkspace:collect="always" stdDeviation="4.2" />
    </filter>
  </defs>
  <title>blockdiag</title>
  <desc>{
	colwidth = 32
	node_height = 72

	0-7: 0x5B (packet type)
	8-15: bg (low)

	16-55: date/time

	56-63: carbInput (low)
	64-65: BG units [rotate=270]
	66-67: ??
	68-69: carbInput\n (high) [rotate=270]
	70-71: bgInput\n (high) [rotate=270]
	72-76: ??
	77-87: insulinCarbRatio


	88-95: insulinSensitivity
	96-103: bgTarget.low
	104-111: recommended.correction (low)
	112-127: recommended.carb

	128: ??
	129-131: recommend\ned.correction\n (high) [rotate=270]
	132-135: ??
	136-151: insulinOnBoard
	152-167: recommended.net
	168-175: bgTarget.high
}
</desc>
  <path d="M 64 48 L 64 80" fill="none" stroke="rgb(0,0,0)" />
  <text fill="rgb(0,0,0)" font-family="sans-serif" font-size="11" font-style="normal" font-weight="normal" text-anchor="middle" textLength="7" x="64" y="41">0</text>
  <path d="M 88 64 L 88 80" fill="none" stroke="rgb(0,0,0)" />
  <path d="M 112 64 L 112 80" fill="none" stroke="rgb(0,0,0)" />
  <path d="M 136 64 L 136 80" fill="none" stroke="rgb(0,0,0)" />
  <path d="M 160 64 L 160 80" fill="none" stroke="rgb(0,0,0)" />
  <path d="M 184 64 L 184 80" fill="none" stroke="rgb(0,0,0)" />
  <path d="M 208 64 L 208 80" fill="none" stroke="rgb(0,0,0)" />
  <path d="M 232 64 L 232 80" fill="none" stroke="rgb(0,0,0)" />
  <path d="M 256 48 L 256 80" fill="none" stroke="rgb(0,0,0)" />
  <path d="M 280 64 L 280 80" fill="none" stroke="rgb(0,0,0)" />
  <path d="M 304 64 L 304 80" fill="none" stroke="rgb(0,0,0)" />
  <path d="M 328 64 L 328 80" fill="none" stroke="rgb(0,0,0)" />
  <path d="M 352 64 L 352 80" fill="none" stroke="rgb(0,0,0)" />
  <path d="M 376 64 L 376 80" fill="none" stroke="rgb(0,0,0)" />
  <path d="M 400 64 L 400 80" fill="none" stroke="rgb(0,0,0)" />
  <path d="M 424 64 L 424 80" fill="none" stroke="rgb(0,0,0)" />
  <path d="M 448 48 L 448 80" fill="none" stroke="rgb(0,0,0)" />
  <text fill="rgb(0,0,0)" font-family="sans-serif" font-size="11" font-style="normal" font-weight="normal" text-anchor="middle" textLength="14" x="448" y="41">16</text>
  <path d="M 472 64 L 472 80" fill="none" stroke="rgb(0,0,0)" />
  <path d="M 496 64 L 496 80" fill="none" stroke="rgb(0,0,0)" />
  <path d="M 520 64 L 520 80" fill="none" stroke="rgb(0,0,0)" />
  <path d="M 544 64 L 544 80" fill="none" stroke="rgb(0,0,0)" />
  <path d="M 568 64 L 568 80" fill="none" stroke="rgb(0,0,0)" />
  <path d="M 592 64 L 592 80" fill="none" stroke="rgb(0,0,0)" />
  <path d="M 616 64 L 616 80" fill="none" stroke="rgb(0,0,0)" />
  <path d="M 640 48 L 640 80" fill="none" stroke="rgb(0,0,0)" />
  <path d="M 664 64 L 664 80" fill="none" stroke="rgb(0,0,0)" />
  <path d="M 688 64 L 688 80" fill="none" stroke="rgb(0,0,0)" />
  <path d="M 712 64 L 712 80" fill="none" stroke="rgb(0,0,0)" />
  <path d="M 736 64 L 736 80" fill="none" stroke="rgb(0,0,0)" />
  <path d="M 760 64 L 760 80" fill="none" stroke="rgb(0,0,0)" />
  <path d="M 784 64 L 784 80" fill="none" stroke="rgb(0,0,0)" />
  <path d="M 808 64 L 808 80" fill="none" stroke="rgb(0,0,0)" />
  <path d="M 832 48 L 832 80" fill="none" stroke="rgb(0,0,0)" />
  <text fill="rgb(0,0,0)" font-family="sans-serif" font-size="11" font-style="normal" font-weight="normal" text-anchor="middle" textLength="14" x="832" y="41">32</text>
  <rect fill="rgb(255,255,255)" height="72" stroke="rgb(255,255,255)" width="192" x="64" y="80" />
  <path d="M 64 80 L 256 80" fill="none" stroke="rgb(0,0,0)" />
  <path d="M 256 80 L 256 152" fill="none" stroke="rgb(0,0,0)" />
  <path d="M 256 152 L 64 152" fill="none" stroke="rgb(0,0,0)" />
  <path d="M 64 152 L 64 80" fill="none" stroke="rgb(0,0,0)" />
  <text fill="rgb(0,0,0)" font-family="sans-serif" font-size="11" font-style="normal" font-weight="normal" text-anchor="middle" textLength="103" x="160" y="122">0x5B (packet type)</text>
  <rect fill="rgb(255,255,255)" height="72" stroke="rgb(255,255,255)" width="192" x="256" y="80" />
  <path d="M 256 80 L 448 80" fill="none" stroke="rgb(0,0,0)" />
  <path d="M 448 80 L 448 152" fill="none" stroke="rgb(0,0,0)" />
  <path d="M 448 152 L 256 152" fill="none" stroke="rgb(0,0,0)" />
  <path d="M 256 152 L 256 80" fill="none" stroke="rgb(0,0,0)" />
  <text fill="rgb(0,0,0)" font-family="sans-serif" font-size="11" font-style="normal" font-weight="normal" text-anchor="middle" textLength="45" x="352" y="122">bg (low)</text>
  <rect fill="rgb(255,255,255)" height="72" stroke="rgb(255,255,255)" width="576" x="64" y="152" />
  <path d="M 64 152 L 640 152" fill="none" stroke="rgb(0,0,0)" />
  <path d="M 640 152 L 640 224" fill="none" stroke="rgb(0,0,0)" />
  <path d="M 640 224 L 64 224" fill="none" stroke="rgb(0,0,0)" />
  <path d="M 64 224 L 64 152" fill="none" stroke="rgb(0,0,0)" stroke-dasharray="4" />
  <text fill="rgb(0,0,0)" font-family="sans-serif" font-size="11" font-style="normal" font-weight="normal" text-anchor="middle" textLength="50" x="352" y="194">date/time</text>
  <rect fill="rgb(255,255,255)" height="72" stroke="rgb(255,255,255)" width="192" x="640" y="152" />
  <path d="M 640 152 L 832 152" fill="none" stroke="rgb(0,0,0)" />
  <path d="M 832 152 L 832 224" fill="none" stroke="rgb(0,0,0)" />
  <path d="M 832 224 L 640 224" fill="none" stroke="rgb(0,0,0)" />
  <path d="M 640 224 L 640 152" fill="none" stroke="rgb(0,0,0)" />
  <text fill="rgb(0,0,0)" font-family="sans-serif" font-size="11" font-style="normal" font-weight="normal" text-anchor="middle" textLength="79" x="736" y="194">carbInput (low)</text>
  <rect fill="rgb(255,255,255)" height="72" stroke="rgb(255,255,255)" width="48" x="64" y="224" />
  <path d="M 64 224 L 112 224" fill="none" stroke="rgb(0,0,0)" />
  <path d="M 112 224 L 112 296" fill="none" stroke="rgb(0,0,0)" />
  <path d="M 112 296 L 64 296" fill="none" stroke="rgb(0,0,0)" />
  <path d="M 64 296 L 64 224" fill="none" stroke="rgb(0,0,0)" />
  <g transform="rotate(270,64,296)">
    <text fill="rgb(0,0,0)" font-family="sans-serif" font-size="11" font-style="normal" font-weight="normal" text-anchor="middle" textLength="43" x="100" y="325">BG units</text>
  </g>
  <rect fill="rgb(255,255,255)" height="72" stroke="rgb(255,255,255)" width="48" x="112" y="224" />
  <path d="M 112 224 L 160 224" fill="none" stroke="rgb(0,0,0)" />
  <path d="M 160 224 L 160 296" fill="none" stroke="rgb(0,0,0)" />
  <path d="M 160 296 L 112 296" fill="none" stroke="rgb(0,0,0)" />
  <path d="M 112 296 L 112 224" fill="none" stroke="rgb(0,0,0)" />
  <text fill="rgb(0,0,0)" font-family="sans-serif" font-size="11" font-style="normal" font-weight="normal" text-anchor="middle" textLength="14" x="136" y="265">??</text>
  <rect fill="rgb(255,255,255)" height="72" stroke="rgb(255,255,255)" width="48" x="160" y="224" />
  <path d="M 160 224 L 208 224" fill="none" stroke="rgb(0,0,0)" />
  <path d="M 208 224 L 208 296" fill="none" stroke="rgb(0,0,0)" />
  <path d="M 208 296 L 160 296" fill="none" stroke="rgb(0,0,0)" />
  <path d="M 160 296 L 160 224" fill="none" stroke="rgb(0,0,0)" />
  <g transform="rotate(270,160,296)">
    <text fill="rgb(0,0,0)" font-family="sans-serif" font-size="11" font-style="normal" font-weight="normal" text-anchor="middle" textLength="46" x="196" y="319">carbInput</text>
    <text fill="rgb(0,0,0)" font-family="sans-serif" font-size="11" font-style="normal" font-weight="normal" text-anchor="middle" textLength="32" x="196" y="333">(high)</text>
  </g>
  <rect fill="rgb(255,255,255)" height="72" stroke="rgb(255,255,255)" width="48" x="208" y="224" />
  <path d="M 208 224 L 256 224" fill="none" stroke="rgb(0,0,0)" />
  <path d="M 256 224 L 256 296" fill="none" stroke="rgb(0,0,0)" />
  <path d="M 256 296 L 208 296" fill="none" stroke="rgb(0,0,0)" />
  <path d="M 208 296 L 208 224" fill="none" stroke="rgb(0,0,0)" />
  <g transform="rotate(270,208,296)">
    <text fill="rgb(0,0,0)" font-family="sans-serif" font-size="11" font-style="normal" font-weight="normal" text-anchor="middle" textLength="36" x="244" y="319">bgInput</text>
    <text fill="rgb(0,0,0)" font-family="sans-serif" font-size="11" font-style="normal" font-weight="normal" text-anchor="middle" textLength="32" x="244" y="333">(high)</text>
  </g>
  <rect fill="rgb(255,255,255)" height="72" stroke="rgb(255,255,255)" width="120" x="256" y="224" />
  <path d="M 256 224 L 376 224" fill="none" stroke="rgb(0,0,0)" />
  <path d="M 376 224 L 376 296" fill="none" stroke="rgb(0,0,0)" />
  <path d="M 376 296 L 256 296" fill="none" stroke="rgb(0,0,0)" />
  <path d="M 256 296 L 256 224" fill="none" stroke="rgb(0,0,0)" />
  <text fill="rgb(0,0,0)" font-family="sans-serif" font-size="11" font-style="normal" font-weight="normal" text-anchor="middle" textLength="14" x="316" y="265">??</text>
  <rect fill="rgb(255,255,255)" height="72" stroke="rgb(255,255,255)" width="264" x="376" y="224" />
  <path d="M 376 224 L 640 224" fill="none" stroke="rgb(0,0,0)" />
  <path d="M 640 224 L 640 296" fill="none" stroke="rgb(0,0,0)" />
  <path d="M 640 296 L 376 296" fill="none" stroke="rgb(0,0,0)" />
  <path d="M 376 296 L 376 224" fill="none" stroke="rgb(0,0,0)" />
  <text fill="rgb(0,0,0)" font-family="sans-serif" font-size="11" font-style="normal" font-weight="normal" text-anchor="middle" textLength="79" x="508" y="265">insulinCarbRatio</text>
  <rect fill="rgb(255,255,255)" height="72" stroke="rgb(255,255,255)" width="192" x="640" y="224" />
  <path d="M 640 224 L 832 224" fill="none" stroke="rgb(0,0,0)" />
  <path d="M 832 224 L 832 296" fill="none" stroke="rgb(0,0,0)" />
  <path d="M 832 296 L 640 296" fill="none" stroke="rgb(0,0,0)" />
  <path d="M 640 296 L 640 224" fill="none" stroke="rgb(0,0,0)" />
  <text fill="rgb(0,0,0)" font-family="sans-serif" font-size="11" font-style="normal" font-weight="normal" text-anchor="middle" textLength="79" x="736" y="266">insulinSensitivity</text>
  <rect fill="rgb(255,255,255)" height="72" stroke="rgb(255,255,255)" width="192" x="64" y="296" />
  <path d="M 64 296 L 256 296" fill="none" stroke="rgb(0,0,0)" />
  <path d="M 256 296 L 256 368" fill="none" stroke="rgb(0,0,0)" />
  <path d="M 256 368 L 64 368" fill="none" stroke="rgb(0,0,0)" />
  <path d="M 64 368 L 64 296" fill="none" stroke="rgb(0,0,0)" />
  <text fill="rgb(0,0,0)" font-family="sans-serif" font-size="11" font-style="normal" font-weight="normal" text-anchor="middle" textLength="66" x="160" y="338">bgTarget.low</text>
  <rect fill="rgb(255,255,255)" height="72" stroke="rgb(255,255,255)" width="192" x="256" y="296" />
  <path d="M 256 296 L 448 296" fill="none" stroke="rgb(0,0,0)" />
  <path d="M 448 296 L 448 368" fill="none" stroke="rgb(0,0,0)" />
  <path d="M 448 368 L 256 368" fill="none" stroke="rgb(0,0,0)" />
  <path d="M 256 368 L 256 296" fill="none" stroke="rgb(0,0,0)" />
  <text fill="rgb(0,0,0)" font-family="sans-serif" font-size="11" font-style="normal" font-weight="normal" text-anchor="middle" textLength="159" x="352" y="338">recommended.correction (low)</text>
  <rect fill="rgb(255,255,255)" height="72" stroke="rgb(255,255,255)" width="384" x="448" y="296" />
  <path d="M 448 296 L 832 296" fill="none" stroke="rgb(0,0,0)" />
  <path d="M 832 296 L 832 368" fill="none" stroke="rgb(0,0,0)" />
  <path d="M 832 368 L 448 368" fill="none" stroke="rgb(0,0,0)" />
  <path d="M 448 368 L 448 296" fill="none" stroke="rgb(0,0,0)" />
  <text fill="rgb(0,0,0)" font-family="sans-serif" font-size="11" font-style="normal" font-weight="normal" text-anchor="middle" textLength="98" x="640" y="337">recommended.carb</text>
  <rect fill="rgb(255,255,255)" height="72" stroke="rgb(255,255,255)" width="24" x="64" y="368" />
  <path d="M 64 368 L 88 368" fill="none" stroke="rgb(0,0,0)" />
  <path d="M 88 368 L 88 440" fill="none" stroke="rgb(0,0,0)" />
  <path d="M 88 440 L 64 440" fill="none" stroke="rgb(0,0,0)" />
  <path d="M 64 440 L 64 368" fill="none" stroke="rgb(0,0,0)" />
  <text fill="rgb(0,0,0)" font-family="sans-serif" font-size="11" font-style="normal" font-weight="normal" text-anchor="middle" textLength="14" x="76" y="409">??</text>
  <rect fill="rgb(255,255,255)" height="72" stroke="rgb(255,255,255)" width="72" x="88" y="368" />
  <path d="M 88 368 L 160 368" fill="none" stroke="rgb(0,0,0)" />
  <path d="M 160 368 L 160 440" fill="none" stroke="rgb(0,0,0)" />
  <path d="M 160 440 L 88 440" fill="none" stroke="rgb(0,0,0)" />
  <path d="M 88 440 L 88 368" fill="none" stroke="rgb(0,0,0)" />
  <g transform="rotate(270,88,440)">
    <text fill="rgb(0,0,0)" font-family="sans-serif" font-size="11" font-style="normal" font-weight="normal" text-anchor="middle" textLength="60" x="124" y="468">recommend</text>
    <text fill="rgb(0,0,0)" font-family="sans-serif" font-size="11" font-style="normal" font-weight="normal" text-anchor="middle" textLength="66" x="124" y="480">ed.correction</text>
    <text fill="rgb(0,0,0)" font-family="sans-serif" font-size="11" font-style="normal" font-weight="normal" text-anchor="middle" textLength="32" x="124" y="494">(high)</text>
  </g>
  <rect fill="rgb(255,255,255)" height="72" stroke="rgb(255,255,255)" width="96" x="160" y="368" />
  <path d="M 160 368 L 256 368" fill="none" stroke="rgb(0,0,0)" />
  <path d="M 256 368 L 256 440" fill="none" stroke="rgb(0,0,0)" />
  <path d="M 256 440 L 160 440" fill="none" stroke="rgb(0,0,0)" />
  <path d="M 160 440 L 160 368" fill="none" stroke="rgb(0,0,0)" />
  <text fill="rgb(0,0,0)" font-family="sans-serif" font-size="11" font-style="normal" font-weight="normal" text-anchor="middle" textLength="14" x="208" y="409">??</text>
  <rect fill="rgb(255,255,255)" height="72" stroke="rgb(255,255,255)" width="384" x="256" y="368" />
  <path d="M 256 368 L 640 368" fill="none" stroke="rgb(0,0,0)" />
  <path d="M 640 368 L 640 440" fill="none" stroke="rgb(0,0,0)" />
  <path d="M 640 440 L 256 440" fill="none" stroke="rgb(0,0,0)" />
  <path d="M 256 440 L 256 368" fill="none" stroke="rgb(0,0,0)" />
  <text fill="rgb(0,0,0)" font-family="sans-serif" font-size="11" font-style="normal" font-weight="normal" text-anchor="middle" textLength="73" x="448" y="409">insulinOnBoard</text>
  <rect fill="rgb(255,255,255)" height="72" stroke="rgb(255,255,255)" width="192" x="64" y="440" />
  <path d="M 64 440 L 256 440" fill="none" stroke="rgb(0,0,0)" />
  <path d="M 256 440 L 256 512" fill="none" stroke="rgb(0,0,0)" />
  <path d="M 256 512 L 64 512" fill="none" stroke="rgb(0,0,0)" />
  <path d="M 64 512 L 64 440" fill="none" stroke="rgb(0,0,0)" stroke-dasharray="4" />
  <text fill="rgb(0,0,0)" font-family="sans-serif" font-size="11" font-style="normal" font-weight="normal" text-anchor="middle" textLength="92" x="160" y="481">recommended.net</text>
  <rect fill="rgb(255,255,255)" height="72" stroke="rgb(255,255,255)" width="192" x="256" y="440" />
  <path d="M 256 440 L 448 440" fill="none" stroke="rgb(0,0,0)" />
  <path d="M 448 440 L 448 512" fill="none" stroke="rgb(0,0,0)" />
  <path d="M 448 512 L 256 512" fill="none" stroke="rgb(0,0,0)" />
  <path d="M 256 512 L 256 440" fill="none" stroke="rgb(0,0,0)" />
  <text fill="rgb(0,0,0)" font-family="sans-serif" font-size="11" font-style="normal" font-weight="normal" text-anchor="middle" textLength="69" x="352" y="482">bgTarget.high</text>
  <rect fill="rgb(255,255,255)" height="72" stroke="rgb(255,255,255)" width="384" x="448" y="80" />
  <path d="M 448 80 L 832 80" fill="none" stroke="rgb(0,0,0)" />
  <path d="M 832 80 L 832 152" fill="none" stroke="rgb(0,0,0)" stroke-dasharray="4" />
  <path d="M 832 152 L 448 152" fill="none" stroke="rgb(0,0,0)" />
  <path d="M 448 152 L 448 80" fill="none" stroke="rgb(0,0,0)" />
  <text fill="rgb(0,0,0)" font-family="sans-serif" font-size="11" font-style="normal" font-weight="normal" text-anchor="middle" textLength="50" x="640" y="122">date/time</text>
  <rect fill="rgb(255,255,255)" height="72" stroke="rgb(255,255,255)" width="192" x="640" y="368" />
  <path d="M 640 368 L 832 368" fill="none" stroke="rgb(0,0,0)" />
  <path d="M 832 368 L 832 440" fill="none" stroke="rgb(0,0,0)" stroke-dasharray="4" />
  <path d="M 832 440 L 640 440" fill="none" stroke="rgb(0,0,0)" />
  <path d="M 640 440 L 640 368" fill="none" stroke="rgb(0,0,0)" />
  <text fill="rgb(0,0,0)" font-family="sans-serif" font-size="11" font-style="normal" font-weight="normal" text-anchor="middle" textLength="92" x="736" y="409">recommended.net</text>
</svg>
