<svg width="213" height="92" viewBox="0 0 213 92" fill="none" xmlns="http://www.w3.org/2000/svg">
<g clip-path="url(#clip0_1435_2936)">
<rect width="213" height="92" rx="20" fill="#FFE8CF"/>
<rect x="18.5" y="61.7915" width="177" height="10" rx="5" fill="#FFE8CF" stroke="#CC6D00"/>
<rect x="18.5" y="64.7915" width="174" height="4" rx="2" fill="#CC6D00" stroke="#CC6D00"/>
<path d="M126.622 44.2227H168.713H182.138C183.742 44.2227 185.041 42.9231 185.041 41.3199V23.9028C185.041 22.2996 183.742 21 182.138 21H126.622C125.018 21 123.719 22.2996 123.719 23.9028V41.3199C123.719 42.9231 125.018 44.2227 126.622 44.2227Z" fill="#CC6D00" stroke="#CC6D00"/>
<path d="M124.622 42.2227H166.713H180.138C181.742 42.2227 183.041 40.9231 183.041 39.3199V21.9028C183.041 20.2996 181.742 19 180.138 19H124.622C123.018 19 121.719 20.2996 121.719 21.9028V39.3199C121.719 40.9231 123.018 42.2227 124.622 42.2227Z" fill="white" stroke="#CC6D00"/>
<path fill-rule="evenodd" clip-rule="evenodd" d="M129.018 38.5871H142.987C144.415 38.5871 145.306 37.0201 144.592 35.7721L137.607 23.5645C136.893 22.3165 135.112 22.3165 134.398 23.5645L127.414 35.7721C126.7 37.0201 127.59 38.5871 129.018 38.5871ZM136.002 32.0187C135.492 32.0187 135.074 31.5965 135.074 31.0804V29.2038C135.074 28.6877 135.492 28.2654 136.002 28.2654C136.512 28.2654 136.93 28.6877 136.93 29.2038V31.0804C136.93 31.5965 136.512 32.0187 136.002 32.0187ZM135.074 35.7729H136.93V33.8954H135.074V35.7729Z" fill="#CC6D00"/>
<path d="M150.374 35.8057V34.3731L154.428 30.3955C155.327 29.4963 155.678 28.9629 155.678 28.2162C155.678 27.3018 155.038 26.6922 154.047 26.6922C153.057 26.6922 152.386 27.2713 152.386 28.201C152.386 28.4295 152.432 28.6734 152.523 28.9325L150.573 29.2982C150.435 28.9477 150.374 28.5515 150.374 28.0943C150.374 27.2256 150.71 26.4788 151.38 25.854C152.066 25.2292 152.95 24.9244 154.047 24.9244C155.19 24.9244 156.059 25.2139 156.684 25.7778C157.309 26.3417 157.629 27.0884 157.629 27.9876C157.629 28.6886 157.492 29.2982 157.217 29.8164C156.958 30.3345 156.47 30.9289 155.769 31.6147L153.377 33.9464H157.629V35.8057H150.374ZM160.713 31.3709L159.143 30.9594L159.646 25.1377H166.26V26.997H161.048L160.789 29.4506C161.353 28.8563 162.313 28.521 163.167 28.521C165.559 28.521 166.931 29.9078 166.931 32.1481C166.931 33.2454 166.55 34.1598 165.788 34.9065C165.041 35.6533 164.051 36.019 162.847 36.019C161.688 36.019 160.759 35.7142 160.073 35.1199C159.387 34.5255 159.052 33.8092 159.052 32.971C159.052 32.6815 159.098 32.4072 159.204 32.1328L161.124 32.59C161.079 32.7272 161.063 32.8644 161.063 32.9863C161.063 33.8245 161.765 34.3122 162.862 34.3122C164.081 34.3122 164.919 33.5044 164.919 32.1481C164.919 30.8679 164.096 30.0755 162.862 30.0755C162.024 30.0755 161.216 30.5631 160.713 31.3709ZM176.538 26.4636C177.437 27.4847 177.894 28.8105 177.894 30.4717C177.894 32.1328 177.437 33.474 176.538 34.495C175.639 35.5161 174.496 36.019 173.079 36.019C171.677 36.019 170.518 35.5161 169.619 34.495C168.72 33.474 168.263 32.1328 168.263 30.4717C168.263 28.8105 168.72 27.4847 169.619 26.4636C170.518 25.4425 171.677 24.9244 173.079 24.9244C174.496 24.9244 175.639 25.4425 176.538 26.4636ZM171.052 33.1692C171.555 33.8245 172.24 34.1598 173.079 34.1598C173.917 34.1598 174.603 33.8397 175.106 33.1844C175.624 32.5291 175.883 31.6299 175.883 30.4869C175.883 29.3439 175.624 28.4295 175.106 27.7742C174.603 27.1189 173.917 26.7836 173.079 26.7836C172.24 26.7836 171.555 27.1189 171.036 27.7742C170.534 28.4295 170.274 29.3439 170.274 30.4869C170.274 31.6299 170.534 32.5138 171.052 33.1692Z" fill="#CC6D00"/>
<path d="M21.7716 46.1615C22.3616 46.8315 22.6616 47.7015 22.6616 48.7915C22.6616 49.8815 22.3616 50.7615 21.7716 51.4315C21.1816 52.1015 20.4316 52.4315 19.5016 52.4315C18.5816 52.4315 17.8216 52.1015 17.2316 51.4315C16.6416 50.7615 16.3416 49.8815 16.3416 48.7915C16.3416 47.7015 16.6416 46.8315 17.2316 46.1615C17.8216 45.4915 18.5816 45.1515 19.5016 45.1515C20.4316 45.1515 21.1816 45.4915 21.7716 46.1615ZM18.1716 50.5615C18.5016 50.9915 18.9516 51.2115 19.5016 51.2115C20.0516 51.2115 20.5016 51.0015 20.8316 50.5715C21.1716 50.1415 21.3416 49.5515 21.3416 48.8015C21.3416 48.0515 21.1716 47.4515 20.8316 47.0215C20.5016 46.5915 20.0516 46.3715 19.5016 46.3715C18.9516 46.3715 18.5016 46.5915 18.1616 47.0215C17.8316 47.4515 17.6616 48.0515 17.6616 48.8015C17.6616 49.5515 17.8316 50.1315 18.1716 50.5615Z" fill="#CC6D00"/>
<path d="M49.4296 49.3815L48.3996 49.1115L48.7296 45.2915H53.0696V46.5115H49.6496L49.4796 48.1215C49.8496 47.7315 50.4796 47.5115 51.0396 47.5115C52.6096 47.5115 53.5096 48.4215 53.5096 49.8915C53.5096 50.6115 53.2596 51.2115 52.7596 51.7015C52.2696 52.1915 51.6196 52.4315 50.8296 52.4315C50.0696 52.4315 49.4596 52.2315 49.0096 51.8415C48.5596 51.4515 48.3396 50.9815 48.3396 50.4315C48.3396 50.2415 48.3696 50.0615 48.4396 49.8815L49.6996 50.1815C49.6696 50.2715 49.6596 50.3615 49.6596 50.4415C49.6596 50.9915 50.1196 51.3115 50.8396 51.3115C51.6396 51.3115 52.1896 50.7815 52.1896 49.8915C52.1896 49.0515 51.6496 48.5315 50.8396 48.5315C50.2896 48.5315 49.7596 48.8515 49.4296 49.3815ZM59.8136 46.1615C60.4036 46.8315 60.7036 47.7015 60.7036 48.7915C60.7036 49.8815 60.4036 50.7615 59.8136 51.4315C59.2236 52.1015 58.4736 52.4315 57.5436 52.4315C56.6236 52.4315 55.8636 52.1015 55.2736 51.4315C54.6836 50.7615 54.3836 49.8815 54.3836 48.7915C54.3836 47.7015 54.6836 46.8315 55.2736 46.1615C55.8636 45.4915 56.6236 45.1515 57.5436 45.1515C58.4736 45.1515 59.2236 45.4915 59.8136 46.1615ZM56.2136 50.5615C56.5436 50.9915 56.9936 51.2115 57.5436 51.2115C58.0936 51.2115 58.5436 51.0015 58.8736 50.5715C59.2136 50.1415 59.3836 49.5515 59.3836 48.8015C59.3836 48.0515 59.2136 47.4515 58.8736 47.0215C58.5436 46.5915 58.0936 46.3715 57.5436 46.3715C56.9936 46.3715 56.5436 46.5915 56.2036 47.0215C55.8736 47.4515 55.7036 48.0515 55.7036 48.8015C55.7036 49.5515 55.8736 50.1315 56.2136 50.5615Z" fill="#CC6D00"/>
<path d="M80.2754 47.3915V46.1715C81.0454 46.1715 81.5154 45.8915 81.8254 45.2915H83.0654V52.2915H81.7454V46.9215C81.3754 47.2815 80.9654 47.3915 80.2754 47.3915ZM89.631 46.1615C90.221 46.8315 90.521 47.7015 90.521 48.7915C90.521 49.8815 90.221 50.7615 89.631 51.4315C89.041 52.1015 88.291 52.4315 87.361 52.4315C86.441 52.4315 85.681 52.1015 85.091 51.4315C84.501 50.7615 84.201 49.8815 84.201 48.7915C84.201 47.7015 84.501 46.8315 85.091 46.1615C85.681 45.4915 86.441 45.1515 87.361 45.1515C88.291 45.1515 89.041 45.4915 89.631 46.1615ZM86.031 50.5615C86.361 50.9915 86.811 51.2115 87.361 51.2115C87.911 51.2115 88.361 51.0015 88.691 50.5715C89.031 50.1415 89.201 49.5515 89.201 48.8015C89.201 48.0515 89.031 47.4515 88.691 47.0215C88.361 46.5915 87.911 46.3715 87.361 46.3715C86.811 46.3715 86.361 46.5915 86.021 47.0215C85.691 47.4515 85.521 48.0515 85.521 48.8015C85.521 49.5515 85.691 50.1315 86.031 50.5615ZM96.8478 46.1615C97.4378 46.8315 97.7378 47.7015 97.7378 48.7915C97.7378 49.8815 97.4378 50.7615 96.8478 51.4315C96.2578 52.1015 95.5078 52.4315 94.5778 52.4315C93.6578 52.4315 92.8978 52.1015 92.3078 51.4315C91.7178 50.7615 91.4178 49.8815 91.4178 48.7915C91.4178 47.7015 91.7178 46.8315 92.3078 46.1615C92.8978 45.4915 93.6578 45.1515 94.5778 45.1515C95.5078 45.1515 96.2578 45.4915 96.8478 46.1615ZM93.2478 50.5615C93.5778 50.9915 94.0278 51.2115 94.5778 51.2115C95.1278 51.2115 95.5778 51.0015 95.9078 50.5715C96.2478 50.1415 96.4178 49.5515 96.4178 48.8015C96.4178 48.0515 96.2478 47.4515 95.9078 47.0215C95.5778 46.5915 95.1278 46.3715 94.5778 46.3715C94.0278 46.3715 93.5778 46.5915 93.2378 47.0215C92.9078 47.4515 92.7378 48.0515 92.7378 48.8015C92.7378 49.5515 92.9078 50.1315 93.2478 50.5615Z" fill="#CC6D00"/>
<path d="M194.5 63.7915L182 41.7915" stroke="#CC6D00"/>
<path d="M18.5 56.2915V66.5" stroke="#CC6D00"/>
<path d="M54 56.2915V62.2915" stroke="#CC6D00"/>
<path d="M89 56.2915V62.2915" stroke="#CC6D00"/>
<path d="M125 56.2915V62.2915" stroke="#CC6D00"/>
<path d="M160 56.2915V62.2915" stroke="#CC6D00"/>
</g>
<defs>
<clipPath id="clip0_1435_2936">
<rect width="213" height="92" fill="white"/>
</clipPath>
</defs>
</svg>
