<?xml version='1.0' encoding='UTF-8'?>
<!DOCTYPE svg PUBLIC "-//W3C//DTD SVG 1.0//EN" "http://www.w3.org/TR/2001/REC-SVG-20010904/DTD/svg10.dtd">
<svg viewBox="0 0 896 264" xmlns="http://www.w3.org/2000/svg" xmlns:inkspace="http://www.inkscape.org/namespaces/inkscape" xmlns:xlink="http://www.w3.org/1999/xlink">
  <defs id="defs_block">
    <filter height="1.504" id="filter_blur" inkspace:collect="always" width="1.1575" x="-0.07875" y="-0.252">
      <feGaussianBlur id="feGaussianBlur3780" inkspace:collect="always" stdDeviation="4.2" />
    </filter>
  </defs>
  <title>blockdiag</title>
  <desc>packetdiag {
	colwidth = 32
	node_height = 72

	0: 0x00 [rotate = 270, color = "#888888"]
	1: 0x04 [rotate = 270, color = "#888888"]
	2-6: Pump Serial
	7: 0x02 [rotate = 270, color = "#888888"]
	8-15: Pump MAC
	16: 0x82 [rotate = 270]
	17-21: [color = "#888888"]
	22: 0x07 [rotate = 270, color = "#888888"]
	23: [color = "#888888"]
	24: 0x28 [rotate = 270, color = "#888888"]
	25-32: CNL MAC
	33: 0x42 [rotate = 270]
	34-40: [color = "#888888"]
	41: Channel [rotate = 270]
}
</desc>
  <path d="M 64 48 L 64 80" fill="none" stroke="rgb(0,0,0)" />
  <text fill="rgb(0,0,0)" font-family="sans-serif" font-size="11" font-style="normal" font-weight="normal" text-anchor="middle" textLength="7" x="64" y="41">0</text>
  <path d="M 88 64 L 88 80" fill="none" stroke="rgb(0,0,0)" />
  <path d="M 112 64 L 112 80" fill="none" stroke="rgb(0,0,0)" />
  <path d="M 136 64 L 136 80" fill="none" stroke="rgb(0,0,0)" />
  <path d="M 160 64 L 160 80" fill="none" stroke="rgb(0,0,0)" />
  <path d="M 184 64 L 184 80" fill="none" stroke="rgb(0,0,0)" />
  <path d="M 208 64 L 208 80" fill="none" stroke="rgb(0,0,0)" />
  <path d="M 232 64 L 232 80" fill="none" stroke="rgb(0,0,0)" />
  <path d="M 256 48 L 256 80" fill="none" stroke="rgb(0,0,0)" />
  <path d="M 280 64 L 280 80" fill="none" stroke="rgb(0,0,0)" />
  <path d="M 304 64 L 304 80" fill="none" stroke="rgb(0,0,0)" />
  <path d="M 328 64 L 328 80" fill="none" stroke="rgb(0,0,0)" />
  <path d="M 352 64 L 352 80" fill="none" stroke="rgb(0,0,0)" />
  <path d="M 376 64 L 376 80" fill="none" stroke="rgb(0,0,0)" />
  <path d="M 400 64 L 400 80" fill="none" stroke="rgb(0,0,0)" />
  <path d="M 424 64 L 424 80" fill="none" stroke="rgb(0,0,0)" />
  <path d="M 448 48 L 448 80" fill="none" stroke="rgb(0,0,0)" />
  <text fill="rgb(0,0,0)" font-family="sans-serif" font-size="11" font-style="normal" font-weight="normal" text-anchor="middle" textLength="14" x="448" y="41">16</text>
  <path d="M 472 64 L 472 80" fill="none" stroke="rgb(0,0,0)" />
  <path d="M 496 64 L 496 80" fill="none" stroke="rgb(0,0,0)" />
  <path d="M 520 64 L 520 80" fill="none" stroke="rgb(0,0,0)" />
  <path d="M 544 64 L 544 80" fill="none" stroke="rgb(0,0,0)" />
  <path d="M 568 64 L 568 80" fill="none" stroke="rgb(0,0,0)" />
  <path d="M 592 64 L 592 80" fill="none" stroke="rgb(0,0,0)" />
  <path d="M 616 64 L 616 80" fill="none" stroke="rgb(0,0,0)" />
  <path d="M 640 48 L 640 80" fill="none" stroke="rgb(0,0,0)" />
  <path d="M 664 64 L 664 80" fill="none" stroke="rgb(0,0,0)" />
  <path d="M 688 64 L 688 80" fill="none" stroke="rgb(0,0,0)" />
  <path d="M 712 64 L 712 80" fill="none" stroke="rgb(0,0,0)" />
  <path d="M 736 64 L 736 80" fill="none" stroke="rgb(0,0,0)" />
  <path d="M 760 64 L 760 80" fill="none" stroke="rgb(0,0,0)" />
  <path d="M 784 64 L 784 80" fill="none" stroke="rgb(0,0,0)" />
  <path d="M 808 64 L 808 80" fill="none" stroke="rgb(0,0,0)" />
  <path d="M 832 48 L 832 80" fill="none" stroke="rgb(0,0,0)" />
  <text fill="rgb(0,0,0)" font-family="sans-serif" font-size="11" font-style="normal" font-weight="normal" text-anchor="middle" textLength="14" x="832" y="41">32</text>
  <rect fill="rgb(136,136,136)" height="72" stroke="rgb(136,136,136)" width="24" x="64" y="80" />
  <path d="M 64 80 L 88 80" fill="none" stroke="rgb(0,0,0)" />
  <path d="M 88 80 L 88 152" fill="none" stroke="rgb(0,0,0)" />
  <path d="M 88 152 L 64 152" fill="none" stroke="rgb(0,0,0)" />
  <path d="M 64 152 L 64 80" fill="none" stroke="rgb(0,0,0)" />
  <g transform="rotate(270,64,152)">
    <text fill="rgb(0,0,0)" font-family="sans-serif" font-size="11" font-style="normal" font-weight="normal" text-anchor="middle" textLength="27" x="100" y="169">0x00</text>
  </g>
  <rect fill="rgb(136,136,136)" height="72" stroke="rgb(136,136,136)" width="24" x="88" y="80" />
  <path d="M 88 80 L 112 80" fill="none" stroke="rgb(0,0,0)" />
  <path d="M 112 80 L 112 152" fill="none" stroke="rgb(0,0,0)" />
  <path d="M 112 152 L 88 152" fill="none" stroke="rgb(0,0,0)" />
  <path d="M 88 152 L 88 80" fill="none" stroke="rgb(0,0,0)" />
  <g transform="rotate(270,88,152)">
    <text fill="rgb(0,0,0)" font-family="sans-serif" font-size="11" font-style="normal" font-weight="normal" text-anchor="middle" textLength="27" x="124" y="169">0x04</text>
  </g>
  <rect fill="rgb(255,255,255)" height="72" stroke="rgb(255,255,255)" width="120" x="112" y="80" />
  <path d="M 112 80 L 232 80" fill="none" stroke="rgb(0,0,0)" />
  <path d="M 232 80 L 232 152" fill="none" stroke="rgb(0,0,0)" />
  <path d="M 232 152 L 112 152" fill="none" stroke="rgb(0,0,0)" />
  <path d="M 112 152 L 112 80" fill="none" stroke="rgb(0,0,0)" />
  <text fill="rgb(0,0,0)" font-family="sans-serif" font-size="11" font-style="normal" font-weight="normal" text-anchor="middle" textLength="60" x="172" y="122">Pump Serial</text>
  <rect fill="rgb(136,136,136)" height="72" stroke="rgb(136,136,136)" width="24" x="232" y="80" />
  <path d="M 232 80 L 256 80" fill="none" stroke="rgb(0,0,0)" />
  <path d="M 256 80 L 256 152" fill="none" stroke="rgb(0,0,0)" />
  <path d="M 256 152 L 232 152" fill="none" stroke="rgb(0,0,0)" />
  <path d="M 232 152 L 232 80" fill="none" stroke="rgb(0,0,0)" />
  <g transform="rotate(270,232,152)">
    <text fill="rgb(0,0,0)" font-family="sans-serif" font-size="11" font-style="normal" font-weight="normal" text-anchor="middle" textLength="27" x="268" y="169">0x02</text>
  </g>
  <rect fill="rgb(255,255,255)" height="72" stroke="rgb(255,255,255)" width="192" x="256" y="80" />
  <path d="M 256 80 L 448 80" fill="none" stroke="rgb(0,0,0)" />
  <path d="M 448 80 L 448 152" fill="none" stroke="rgb(0,0,0)" />
  <path d="M 448 152 L 256 152" fill="none" stroke="rgb(0,0,0)" />
  <path d="M 256 152 L 256 80" fill="none" stroke="rgb(0,0,0)" />
  <text fill="rgb(0,0,0)" font-family="sans-serif" font-size="11" font-style="normal" font-weight="normal" text-anchor="middle" textLength="59" x="352" y="122">Pump MAC</text>
  <rect fill="rgb(255,255,255)" height="72" stroke="rgb(255,255,255)" width="24" x="448" y="80" />
  <path d="M 448 80 L 472 80" fill="none" stroke="rgb(0,0,0)" />
  <path d="M 472 80 L 472 152" fill="none" stroke="rgb(0,0,0)" />
  <path d="M 472 152 L 448 152" fill="none" stroke="rgb(0,0,0)" />
  <path d="M 448 152 L 448 80" fill="none" stroke="rgb(0,0,0)" />
  <g transform="rotate(270,448,152)">
    <text fill="rgb(0,0,0)" font-family="sans-serif" font-size="11" font-style="normal" font-weight="normal" text-anchor="middle" textLength="27" x="484" y="169">0x82</text>
  </g>
  <rect fill="rgb(136,136,136)" height="72" stroke="rgb(136,136,136)" width="120" x="472" y="80" />
  <path d="M 472 80 L 592 80" fill="none" stroke="rgb(0,0,0)" />
  <path d="M 592 80 L 592 152" fill="none" stroke="rgb(0,0,0)" />
  <path d="M 592 152 L 472 152" fill="none" stroke="rgb(0,0,0)" />
  <path d="M 472 152 L 472 80" fill="none" stroke="rgb(0,0,0)" />
  <rect fill="rgb(136,136,136)" height="72" stroke="rgb(136,136,136)" width="24" x="592" y="80" />
  <path d="M 592 80 L 616 80" fill="none" stroke="rgb(0,0,0)" />
  <path d="M 616 80 L 616 152" fill="none" stroke="rgb(0,0,0)" />
  <path d="M 616 152 L 592 152" fill="none" stroke="rgb(0,0,0)" />
  <path d="M 592 152 L 592 80" fill="none" stroke="rgb(0,0,0)" />
  <g transform="rotate(270,592,152)">
    <text fill="rgb(0,0,0)" font-family="sans-serif" font-size="11" font-style="normal" font-weight="normal" text-anchor="middle" textLength="27" x="628" y="169">0x07</text>
  </g>
  <rect fill="rgb(136,136,136)" height="72" stroke="rgb(136,136,136)" width="24" x="616" y="80" />
  <path d="M 616 80 L 640 80" fill="none" stroke="rgb(0,0,0)" />
  <path d="M 640 80 L 640 152" fill="none" stroke="rgb(0,0,0)" />
  <path d="M 640 152 L 616 152" fill="none" stroke="rgb(0,0,0)" />
  <path d="M 616 152 L 616 80" fill="none" stroke="rgb(0,0,0)" />
  <rect fill="rgb(136,136,136)" height="72" stroke="rgb(136,136,136)" width="24" x="640" y="80" />
  <path d="M 640 80 L 664 80" fill="none" stroke="rgb(0,0,0)" />
  <path d="M 664 80 L 664 152" fill="none" stroke="rgb(0,0,0)" />
  <path d="M 664 152 L 640 152" fill="none" stroke="rgb(0,0,0)" />
  <path d="M 640 152 L 640 80" fill="none" stroke="rgb(0,0,0)" />
  <g transform="rotate(270,640,152)">
    <text fill="rgb(0,0,0)" font-family="sans-serif" font-size="11" font-style="normal" font-weight="normal" text-anchor="middle" textLength="28" x="676" y="169">0x28</text>
  </g>
  <rect fill="rgb(255,255,255)" height="72" stroke="rgb(255,255,255)" width="24" x="64" y="152" />
  <path d="M 64 152 L 88 152" fill="none" stroke="rgb(0,0,0)" />
  <path d="M 88 152 L 88 224" fill="none" stroke="rgb(0,0,0)" />
  <path d="M 88 224 L 64 224" fill="none" stroke="rgb(0,0,0)" />
  <path d="M 64 224 L 64 152" fill="none" stroke="rgb(0,0,0)" stroke-dasharray="4" />
  <text fill="rgb(0,0,0)" font-family="sans-serif" font-size="11" font-style="normal" font-weight="normal" text-anchor="middle" textLength="22" x="76" y="181">CNL</text>
  <text fill="rgb(0,0,0)" font-family="sans-serif" font-size="11" font-style="normal" font-weight="normal" text-anchor="middle" textLength="22" x="76" y="193"> MA</text>
  <text fill="rgb(0,0,0)" font-family="sans-serif" font-size="11" font-style="normal" font-weight="normal" text-anchor="middle" textLength="8" x="76" y="205">C</text>
  <rect fill="rgb(255,255,255)" height="72" stroke="rgb(255,255,255)" width="24" x="88" y="152" />
  <path d="M 88 152 L 112 152" fill="none" stroke="rgb(0,0,0)" />
  <path d="M 112 152 L 112 224" fill="none" stroke="rgb(0,0,0)" />
  <path d="M 112 224 L 88 224" fill="none" stroke="rgb(0,0,0)" />
  <path d="M 88 224 L 88 152" fill="none" stroke="rgb(0,0,0)" />
  <g transform="rotate(270,88,224)">
    <text fill="rgb(0,0,0)" font-family="sans-serif" font-size="11" font-style="normal" font-weight="normal" text-anchor="middle" textLength="27" x="124" y="241">0x42</text>
  </g>
  <rect fill="rgb(136,136,136)" height="72" stroke="rgb(136,136,136)" width="168" x="112" y="152" />
  <path d="M 112 152 L 280 152" fill="none" stroke="rgb(0,0,0)" />
  <path d="M 280 152 L 280 224" fill="none" stroke="rgb(0,0,0)" />
  <path d="M 280 224 L 112 224" fill="none" stroke="rgb(0,0,0)" />
  <path d="M 112 224 L 112 152" fill="none" stroke="rgb(0,0,0)" />
  <rect fill="rgb(255,255,255)" height="72" stroke="rgb(255,255,255)" width="24" x="280" y="152" />
  <path d="M 280 152 L 304 152" fill="none" stroke="rgb(0,0,0)" />
  <path d="M 304 152 L 304 224" fill="none" stroke="rgb(0,0,0)" />
  <path d="M 304 224 L 280 224" fill="none" stroke="rgb(0,0,0)" />
  <path d="M 280 224 L 280 152" fill="none" stroke="rgb(0,0,0)" />
  <g transform="rotate(270,280,224)">
    <text fill="rgb(0,0,0)" font-family="sans-serif" font-size="11" font-style="normal" font-weight="normal" text-anchor="middle" textLength="40" x="316" y="241">Channel</text>
  </g>
  <rect fill="rgb(255,255,255)" height="72" stroke="rgb(255,255,255)" width="168" x="664" y="80" />
  <path d="M 664 80 L 832 80" fill="none" stroke="rgb(0,0,0)" />
  <path d="M 832 80 L 832 152" fill="none" stroke="rgb(0,0,0)" stroke-dasharray="4" />
  <path d="M 832 152 L 664 152" fill="none" stroke="rgb(0,0,0)" />
  <path d="M 664 152 L 664 80" fill="none" stroke="rgb(0,0,0)" />
  <text fill="rgb(0,0,0)" font-family="sans-serif" font-size="11" font-style="normal" font-weight="normal" text-anchor="middle" textLength="52" x="748" y="121">CNL MAC</text>
</svg>
