<?xml version='1.0' encoding='UTF-8'?>
<!DOCTYPE svg PUBLIC "-//W3C//DTD SVG 1.0//EN" "http://www.w3.org/TR/2001/REC-SVG-20010904/DTD/svg10.dtd">
<svg viewBox="0 0 464 192" xmlns="http://www.w3.org/2000/svg" xmlns:inkspace="http://www.inkscape.org/namespaces/inkscape" xmlns:xlink="http://www.w3.org/1999/xlink">
  <defs id="defs_block">
    <filter height="1.504" id="filter_blur" inkspace:collect="always" width="1.1575" x="-0.07875" y="-0.252">
      <feGaussianBlur id="feGaussianBlur3780" inkspace:collect="always" stdDeviation="4.2" />
    </filter>
  </defs>
  <title>blockdiag</title>
  <desc>packetdiag {
	colwidth = 16
	node_height = 72

	0: Seq # [rotate = 270]
	1-2: 0x0407
	3: Time Set [rotate = 270]
	4-7: RTC
	8-11: Offset
	12-13: Checksum  [rotate = 270]
}
</desc>
  <path d="M 64 48 L 64 80" fill="none" stroke="rgb(0,0,0)" />
  <text fill="rgb(0,0,0)" font-family="sans-serif" font-size="11" font-style="normal" font-weight="normal" text-anchor="middle" textLength="7" x="64" y="41">0</text>
  <path d="M 88 64 L 88 80" fill="none" stroke="rgb(0,0,0)" />
  <path d="M 112 64 L 112 80" fill="none" stroke="rgb(0,0,0)" />
  <path d="M 136 64 L 136 80" fill="none" stroke="rgb(0,0,0)" />
  <path d="M 160 64 L 160 80" fill="none" stroke="rgb(0,0,0)" />
  <path d="M 184 64 L 184 80" fill="none" stroke="rgb(0,0,0)" />
  <path d="M 208 64 L 208 80" fill="none" stroke="rgb(0,0,0)" />
  <path d="M 232 48 L 232 80" fill="none" stroke="rgb(0,0,0)" />
  <text fill="rgb(0,0,0)" font-family="sans-serif" font-size="11" font-style="normal" font-weight="normal" text-anchor="middle" textLength="7" x="232" y="41">7</text>
  <path d="M 256 64 L 256 80" fill="none" stroke="rgb(0,0,0)" />
  <path d="M 280 64 L 280 80" fill="none" stroke="rgb(0,0,0)" />
  <path d="M 304 64 L 304 80" fill="none" stroke="rgb(0,0,0)" />
  <path d="M 328 64 L 328 80" fill="none" stroke="rgb(0,0,0)" />
  <path d="M 352 64 L 352 80" fill="none" stroke="rgb(0,0,0)" />
  <path d="M 376 64 L 376 80" fill="none" stroke="rgb(0,0,0)" />
  <path d="M 400 48 L 400 80" fill="none" stroke="rgb(0,0,0)" />
  <text fill="rgb(0,0,0)" font-family="sans-serif" font-size="11" font-style="normal" font-weight="normal" text-anchor="middle" textLength="14" x="400" y="41">14</text>
  <rect fill="rgb(255,255,255)" height="72" stroke="rgb(255,255,255)" width="24" x="64" y="80" />
  <path d="M 64 80 L 88 80" fill="none" stroke="rgb(0,0,0)" />
  <path d="M 88 80 L 88 152" fill="none" stroke="rgb(0,0,0)" />
  <path d="M 88 152 L 64 152" fill="none" stroke="rgb(0,0,0)" />
  <path d="M 64 152 L 64 80" fill="none" stroke="rgb(0,0,0)" />
  <g transform="rotate(270,64,152)">
    <text fill="rgb(0,0,0)" font-family="sans-serif" font-size="11" font-style="normal" font-weight="normal" text-anchor="middle" textLength="31" x="100" y="170">Seq #</text>
  </g>
  <rect fill="rgb(255,255,255)" height="72" stroke="rgb(255,255,255)" width="48" x="88" y="80" />
  <path d="M 88 80 L 136 80" fill="none" stroke="rgb(0,0,0)" />
  <path d="M 136 80 L 136 152" fill="none" stroke="rgb(0,0,0)" />
  <path d="M 136 152 L 88 152" fill="none" stroke="rgb(0,0,0)" />
  <path d="M 88 152 L 88 80" fill="none" stroke="rgb(0,0,0)" />
  <text fill="rgb(0,0,0)" font-family="sans-serif" font-size="11" font-style="normal" font-weight="normal" text-anchor="middle" textLength="41" x="112" y="121">0x0407</text>
  <rect fill="rgb(255,255,255)" height="72" stroke="rgb(255,255,255)" width="24" x="136" y="80" />
  <path d="M 136 80 L 160 80" fill="none" stroke="rgb(0,0,0)" />
  <path d="M 160 80 L 160 152" fill="none" stroke="rgb(0,0,0)" />
  <path d="M 160 152 L 136 152" fill="none" stroke="rgb(0,0,0)" />
  <path d="M 136 152 L 136 80" fill="none" stroke="rgb(0,0,0)" />
  <g transform="rotate(270,136,152)">
    <text fill="rgb(0,0,0)" font-family="sans-serif" font-size="11" font-style="normal" font-weight="normal" text-anchor="middle" textLength="46" x="172" y="169">Time Set</text>
  </g>
  <rect fill="rgb(255,255,255)" height="72" stroke="rgb(255,255,255)" width="96" x="160" y="80" />
  <path d="M 160 80 L 256 80" fill="none" stroke="rgb(0,0,0)" />
  <path d="M 256 80 L 256 152" fill="none" stroke="rgb(0,0,0)" />
  <path d="M 256 152 L 160 152" fill="none" stroke="rgb(0,0,0)" />
  <path d="M 160 152 L 160 80" fill="none" stroke="rgb(0,0,0)" />
  <text fill="rgb(0,0,0)" font-family="sans-serif" font-size="11" font-style="normal" font-weight="normal" text-anchor="middle" textLength="22" x="208" y="121">RTC</text>
  <rect fill="rgb(255,255,255)" height="72" stroke="rgb(255,255,255)" width="96" x="256" y="80" />
  <path d="M 256 80 L 352 80" fill="none" stroke="rgb(0,0,0)" />
  <path d="M 352 80 L 352 152" fill="none" stroke="rgb(0,0,0)" />
  <path d="M 352 152 L 256 152" fill="none" stroke="rgb(0,0,0)" />
  <path d="M 256 152 L 256 80" fill="none" stroke="rgb(0,0,0)" />
  <text fill="rgb(0,0,0)" font-family="sans-serif" font-size="11" font-style="normal" font-weight="normal" text-anchor="middle" textLength="32" x="304" y="121">Offset</text>
  <rect fill="rgb(255,255,255)" height="72" stroke="rgb(255,255,255)" width="48" x="352" y="80" />
  <path d="M 352 80 L 400 80" fill="none" stroke="rgb(0,0,0)" />
  <path d="M 400 80 L 400 152" fill="none" stroke="rgb(0,0,0)" />
  <path d="M 400 152 L 352 152" fill="none" stroke="rgb(0,0,0)" />
  <path d="M 352 152 L 352 80" fill="none" stroke="rgb(0,0,0)" />
  <g transform="rotate(270,352,152)">
    <text fill="rgb(0,0,0)" font-family="sans-serif" font-size="11" font-style="normal" font-weight="normal" text-anchor="middle" textLength="53" x="388" y="181">Checksum</text>
  </g>
</svg>
