<?xml version='1.0' encoding='UTF-8'?>
<!DOCTYPE svg PUBLIC "-//W3C//DTD SVG 1.0//EN" "http://www.w3.org/TR/2001/REC-SVG-20010904/DTD/svg10.dtd">
<svg viewBox="0 0 488 192" xmlns="http://www.w3.org/2000/svg" xmlns:inkspace="http://www.inkscape.org/namespaces/inkscape" xmlns:xlink="http://www.w3.org/1999/xlink">
  <defs id="defs_block">
    <filter height="1.504" id="filter_blur" inkspace:collect="always" width="1.1575" x="-0.07875" y="-0.252">
      <feGaussianBlur id="feGaussianBlur3780" inkspace:collect="always" stdDeviation="4.2" />
    </filter>
  </defs>
  <title>blockdiag</title>
  <desc>packetdiag {
	colwidth = 32
	node_height = 72

	0: Seq # [rotate = 270]
	1-2: 0x0123
	3: Pattern # [rotate = 270]
	4: # Items [rotate = 270]
	5-8: Basal Rate 1 [rotate = 270, color = "#EBF1DF"]
	9: Basal Rate 1 Time [rotate = 270, color = "#EBF1DF"]
	10-12: ... [style = "dashed"]
	13-14: CCITT
}
</desc>
  <path d="M 64 48 L 64 80" fill="none" stroke="rgb(0,0,0)" />
  <text fill="rgb(0,0,0)" font-family="sans-serif" font-size="11" font-style="normal" font-weight="normal" text-anchor="middle" textLength="7" x="64" y="41">0</text>
  <path d="M 88 64 L 88 80" fill="none" stroke="rgb(0,0,0)" />
  <path d="M 112 64 L 112 80" fill="none" stroke="rgb(0,0,0)" />
  <path d="M 136 64 L 136 80" fill="none" stroke="rgb(0,0,0)" />
  <path d="M 160 64 L 160 80" fill="none" stroke="rgb(0,0,0)" />
  <path d="M 184 64 L 184 80" fill="none" stroke="rgb(0,0,0)" />
  <path d="M 208 64 L 208 80" fill="none" stroke="rgb(0,0,0)" />
  <path d="M 232 64 L 232 80" fill="none" stroke="rgb(0,0,0)" />
  <text fill="rgb(0,0,0)" font-family="sans-serif" font-size="11" font-style="normal" font-weight="normal" text-anchor="middle" textLength="7" x="232" y="57">7</text>
  <path d="M 256 64 L 256 80" fill="none" stroke="rgb(0,0,0)" />
  <path d="M 280 64 L 280 80" fill="none" stroke="rgb(0,0,0)" />
  <path d="M 304 64 L 304 80" fill="none" stroke="rgb(0,0,0)" />
  <path d="M 328 64 L 328 80" fill="none" stroke="rgb(0,0,0)" />
  <path d="M 352 64 L 352 80" fill="none" stroke="rgb(0,0,0)" />
  <path d="M 376 64 L 376 80" fill="none" stroke="rgb(0,0,0)" />
  <path d="M 400 64 L 400 80" fill="none" stroke="rgb(0,0,0)" />
  <text fill="rgb(0,0,0)" font-family="sans-serif" font-size="11" font-style="normal" font-weight="normal" text-anchor="middle" textLength="14" x="400" y="57">14</text>
  <path d="M 424 48 L 424 80" fill="none" stroke="rgb(0,0,0)" />
  <rect fill="rgb(255,255,255)" height="72" stroke="rgb(255,255,255)" width="24" x="64" y="80" />
  <path d="M 64 80 L 88 80" fill="none" stroke="rgb(0,0,0)" />
  <path d="M 88 80 L 88 152" fill="none" stroke="rgb(0,0,0)" />
  <path d="M 88 152 L 64 152" fill="none" stroke="rgb(0,0,0)" />
  <path d="M 64 152 L 64 80" fill="none" stroke="rgb(0,0,0)" />
  <g transform="rotate(270,64,152)">
    <text fill="rgb(0,0,0)" font-family="sans-serif" font-size="11" font-style="normal" font-weight="normal" text-anchor="middle" textLength="31" x="100" y="170">Seq #</text>
  </g>
  <rect fill="rgb(255,255,255)" height="72" stroke="rgb(255,255,255)" width="48" x="88" y="80" />
  <path d="M 88 80 L 136 80" fill="none" stroke="rgb(0,0,0)" />
  <path d="M 136 80 L 136 152" fill="none" stroke="rgb(0,0,0)" />
  <path d="M 136 152 L 88 152" fill="none" stroke="rgb(0,0,0)" />
  <path d="M 88 152 L 88 80" fill="none" stroke="rgb(0,0,0)" />
  <text fill="rgb(0,0,0)" font-family="sans-serif" font-size="11" font-style="normal" font-weight="normal" text-anchor="middle" textLength="41" x="112" y="121">0x0123</text>
  <rect fill="rgb(255,255,255)" height="72" stroke="rgb(255,255,255)" width="24" x="136" y="80" />
  <path d="M 136 80 L 160 80" fill="none" stroke="rgb(0,0,0)" />
  <path d="M 160 80 L 160 152" fill="none" stroke="rgb(0,0,0)" />
  <path d="M 160 152 L 136 152" fill="none" stroke="rgb(0,0,0)" />
  <path d="M 136 152 L 136 80" fill="none" stroke="rgb(0,0,0)" />
  <g transform="rotate(270,136,152)">
    <text fill="rgb(0,0,0)" font-family="sans-serif" font-size="11" font-style="normal" font-weight="normal" text-anchor="middle" textLength="49" x="172" y="169">Pattern #</text>
  </g>
  <rect fill="rgb(255,255,255)" height="72" stroke="rgb(255,255,255)" width="24" x="160" y="80" />
  <path d="M 160 80 L 184 80" fill="none" stroke="rgb(0,0,0)" />
  <path d="M 184 80 L 184 152" fill="none" stroke="rgb(0,0,0)" />
  <path d="M 184 152 L 160 152" fill="none" stroke="rgb(0,0,0)" />
  <path d="M 160 152 L 160 80" fill="none" stroke="rgb(0,0,0)" />
  <g transform="rotate(270,160,152)">
    <text fill="rgb(0,0,0)" font-family="sans-serif" font-size="11" font-style="normal" font-weight="normal" text-anchor="middle" textLength="39" x="196" y="169"># Items</text>
  </g>
  <rect fill="rgb(235,241,223)" height="72" stroke="rgb(235,241,223)" width="96" x="184" y="80" />
  <path d="M 184 80 L 280 80" fill="none" stroke="rgb(0,0,0)" />
  <path d="M 280 80 L 280 152" fill="none" stroke="rgb(0,0,0)" />
  <path d="M 280 152 L 184 152" fill="none" stroke="rgb(0,0,0)" />
  <path d="M 184 152 L 184 80" fill="none" stroke="rgb(0,0,0)" />
  <g transform="rotate(270,184,152)">
    <text fill="rgb(0,0,0)" font-family="sans-serif" font-size="11" font-style="normal" font-weight="normal" text-anchor="middle" textLength="64" x="220" y="205">Basal Rate 1</text>
  </g>
  <rect fill="rgb(235,241,223)" height="72" stroke="rgb(235,241,223)" width="24" x="280" y="80" />
  <path d="M 280 80 L 304 80" fill="none" stroke="rgb(0,0,0)" />
  <path d="M 304 80 L 304 152" fill="none" stroke="rgb(0,0,0)" />
  <path d="M 304 152 L 280 152" fill="none" stroke="rgb(0,0,0)" />
  <path d="M 280 152 L 280 80" fill="none" stroke="rgb(0,0,0)" />
  <g transform="rotate(270,280,152)">
    <text fill="rgb(0,0,0)" font-family="sans-serif" font-size="11" font-style="normal" font-weight="normal" text-anchor="middle" textLength="69" x="316" y="169">Basal Rate ...</text>
  </g>
  <rect fill="rgb(255,255,255)" height="72" stroke="rgb(255,255,255)" width="72" x="304" y="80" />
  <path d="M 304 80 L 376 80" fill="none" stroke="rgb(0,0,0)" stroke-dasharray="4" />
  <path d="M 376 80 L 376 152" fill="none" stroke="rgb(0,0,0)" stroke-dasharray="4" />
  <path d="M 376 152 L 304 152" fill="none" stroke="rgb(0,0,0)" stroke-dasharray="4" />
  <path d="M 304 152 L 304 80" fill="none" stroke="rgb(0,0,0)" stroke-dasharray="4" />
  <text fill="rgb(0,0,0)" font-family="sans-serif" font-size="11" font-style="normal" font-weight="normal" text-anchor="middle" textLength="12" x="340" y="121">...</text>
  <rect fill="rgb(255,255,255)" height="72" stroke="rgb(255,255,255)" width="48" x="376" y="80" />
  <path d="M 376 80 L 424 80" fill="none" stroke="rgb(0,0,0)" />
  <path d="M 424 80 L 424 152" fill="none" stroke="rgb(0,0,0)" />
  <path d="M 424 152 L 376 152" fill="none" stroke="rgb(0,0,0)" />
  <path d="M 376 152 L 376 80" fill="none" stroke="rgb(0,0,0)" />
  <text fill="rgb(0,0,0)" font-family="sans-serif" font-size="11" font-style="normal" font-weight="normal" text-anchor="middle" textLength="32" x="400" y="121">CCITT</text>
</svg>
