<?xml version='1.0' encoding='UTF-8'?>
<!DOCTYPE svg PUBLIC "-//W3C//DTD SVG 1.0//EN" "http://www.w3.org/TR/2001/REC-SVG-20010904/DTD/svg10.dtd">
<svg viewBox="0 0 896 408" xmlns="http://www.w3.org/2000/svg" xmlns:inkspace="http://www.inkscape.org/namespaces/inkscape" xmlns:xlink="http://www.w3.org/1999/xlink">
  <defs id="defs_block">
    <filter height="1.504" id="filter_blur" inkspace:collect="always" width="1.1575" x="-0.07875" y="-0.252">
      <feGaussianBlur id="feGaussianBlur3780" inkspace:collect="always" stdDeviation="4.2" />
    </filter>
  </defs>
  <title>blockdiag</title>
  <desc>{
  colwidth = 32
  node_height = 72

  0-7: carbInput (low)
  8-11: ??
  12-13: carbInput\n (high) [rotate=270]
  14-15: bgInput\n (high) [rotate=270]
  16-20: ??
  21-31: insulinCarbRatio


  32-39: insulinSensitivity
  40-47: bgTarget.low
  48-55: recommended.correction
  56-71: recommended.carb

  72-73: ??
  74-75: correction\ntwo's comp\ncheck [rotate=270]
  76-79: ??
  80-95: insulinOnBoard
  96-111: recommended.net
  112-119: bgTarget.high
}
</desc>
  <path d="M 64 48 L 64 80" fill="none" stroke="rgb(0,0,0)" />
  <text fill="rgb(0,0,0)" font-family="sans-serif" font-size="11" font-style="normal" font-weight="normal" text-anchor="middle" textLength="7" x="64" y="41">0</text>
  <path d="M 88 64 L 88 80" fill="none" stroke="rgb(0,0,0)" />
  <path d="M 112 64 L 112 80" fill="none" stroke="rgb(0,0,0)" />
  <path d="M 136 64 L 136 80" fill="none" stroke="rgb(0,0,0)" />
  <path d="M 160 64 L 160 80" fill="none" stroke="rgb(0,0,0)" />
  <path d="M 184 64 L 184 80" fill="none" stroke="rgb(0,0,0)" />
  <path d="M 208 64 L 208 80" fill="none" stroke="rgb(0,0,0)" />
  <path d="M 232 64 L 232 80" fill="none" stroke="rgb(0,0,0)" />
  <path d="M 256 48 L 256 80" fill="none" stroke="rgb(0,0,0)" />
  <path d="M 280 64 L 280 80" fill="none" stroke="rgb(0,0,0)" />
  <path d="M 304 64 L 304 80" fill="none" stroke="rgb(0,0,0)" />
  <path d="M 328 64 L 328 80" fill="none" stroke="rgb(0,0,0)" />
  <path d="M 352 64 L 352 80" fill="none" stroke="rgb(0,0,0)" />
  <path d="M 376 64 L 376 80" fill="none" stroke="rgb(0,0,0)" />
  <path d="M 400 64 L 400 80" fill="none" stroke="rgb(0,0,0)" />
  <path d="M 424 64 L 424 80" fill="none" stroke="rgb(0,0,0)" />
  <path d="M 448 48 L 448 80" fill="none" stroke="rgb(0,0,0)" />
  <text fill="rgb(0,0,0)" font-family="sans-serif" font-size="11" font-style="normal" font-weight="normal" text-anchor="middle" textLength="14" x="448" y="41">16</text>
  <path d="M 472 64 L 472 80" fill="none" stroke="rgb(0,0,0)" />
  <path d="M 496 64 L 496 80" fill="none" stroke="rgb(0,0,0)" />
  <path d="M 520 64 L 520 80" fill="none" stroke="rgb(0,0,0)" />
  <path d="M 544 64 L 544 80" fill="none" stroke="rgb(0,0,0)" />
  <path d="M 568 64 L 568 80" fill="none" stroke="rgb(0,0,0)" />
  <path d="M 592 64 L 592 80" fill="none" stroke="rgb(0,0,0)" />
  <path d="M 616 64 L 616 80" fill="none" stroke="rgb(0,0,0)" />
  <path d="M 640 48 L 640 80" fill="none" stroke="rgb(0,0,0)" />
  <path d="M 664 64 L 664 80" fill="none" stroke="rgb(0,0,0)" />
  <path d="M 688 64 L 688 80" fill="none" stroke="rgb(0,0,0)" />
  <path d="M 712 64 L 712 80" fill="none" stroke="rgb(0,0,0)" />
  <path d="M 736 64 L 736 80" fill="none" stroke="rgb(0,0,0)" />
  <path d="M 760 64 L 760 80" fill="none" stroke="rgb(0,0,0)" />
  <path d="M 784 64 L 784 80" fill="none" stroke="rgb(0,0,0)" />
  <path d="M 808 64 L 808 80" fill="none" stroke="rgb(0,0,0)" />
  <path d="M 832 48 L 832 80" fill="none" stroke="rgb(0,0,0)" />
  <text fill="rgb(0,0,0)" font-family="sans-serif" font-size="11" font-style="normal" font-weight="normal" text-anchor="middle" textLength="14" x="832" y="41">32</text>
  <rect fill="rgb(255,255,255)" height="72" stroke="rgb(255,255,255)" width="192" x="64" y="80" />
  <path d="M 64 80 L 256 80" fill="none" stroke="rgb(0,0,0)" />
  <path d="M 256 80 L 256 152" fill="none" stroke="rgb(0,0,0)" />
  <path d="M 256 152 L 64 152" fill="none" stroke="rgb(0,0,0)" />
  <path d="M 64 152 L 64 80" fill="none" stroke="rgb(0,0,0)" />
  <text fill="rgb(0,0,0)" font-family="sans-serif" font-size="11" font-style="normal" font-weight="normal" text-anchor="middle" textLength="79" x="160" y="122">carbInput (low)</text>
  <rect fill="rgb(255,255,255)" height="72" stroke="rgb(255,255,255)" width="96" x="256" y="80" />
  <path d="M 256 80 L 352 80" fill="none" stroke="rgb(0,0,0)" />
  <path d="M 352 80 L 352 152" fill="none" stroke="rgb(0,0,0)" />
  <path d="M 352 152 L 256 152" fill="none" stroke="rgb(0,0,0)" />
  <path d="M 256 152 L 256 80" fill="none" stroke="rgb(0,0,0)" />
  <text fill="rgb(0,0,0)" font-family="sans-serif" font-size="11" font-style="normal" font-weight="normal" text-anchor="middle" textLength="14" x="304" y="121">??</text>
  <rect fill="rgb(255,255,255)" height="72" stroke="rgb(255,255,255)" width="48" x="352" y="80" />
  <path d="M 352 80 L 400 80" fill="none" stroke="rgb(0,0,0)" />
  <path d="M 400 80 L 400 152" fill="none" stroke="rgb(0,0,0)" />
  <path d="M 400 152 L 352 152" fill="none" stroke="rgb(0,0,0)" />
  <path d="M 352 152 L 352 80" fill="none" stroke="rgb(0,0,0)" />
  <g transform="rotate(270,352,152)">
    <text fill="rgb(0,0,0)" font-family="sans-serif" font-size="11" font-style="normal" font-weight="normal" text-anchor="middle" textLength="46" x="388" y="175">carbInput</text>
    <text fill="rgb(0,0,0)" font-family="sans-serif" font-size="11" font-style="normal" font-weight="normal" text-anchor="middle" textLength="32" x="388" y="189">(high)</text>
  </g>
  <rect fill="rgb(255,255,255)" height="72" stroke="rgb(255,255,255)" width="48" x="400" y="80" />
  <path d="M 400 80 L 448 80" fill="none" stroke="rgb(0,0,0)" />
  <path d="M 448 80 L 448 152" fill="none" stroke="rgb(0,0,0)" />
  <path d="M 448 152 L 400 152" fill="none" stroke="rgb(0,0,0)" />
  <path d="M 400 152 L 400 80" fill="none" stroke="rgb(0,0,0)" />
  <g transform="rotate(270,400,152)">
    <text fill="rgb(0,0,0)" font-family="sans-serif" font-size="11" font-style="normal" font-weight="normal" text-anchor="middle" textLength="36" x="436" y="175">bgInput</text>
    <text fill="rgb(0,0,0)" font-family="sans-serif" font-size="11" font-style="normal" font-weight="normal" text-anchor="middle" textLength="32" x="436" y="189">(high)</text>
  </g>
  <rect fill="rgb(255,255,255)" height="72" stroke="rgb(255,255,255)" width="120" x="448" y="80" />
  <path d="M 448 80 L 568 80" fill="none" stroke="rgb(0,0,0)" />
  <path d="M 568 80 L 568 152" fill="none" stroke="rgb(0,0,0)" />
  <path d="M 568 152 L 448 152" fill="none" stroke="rgb(0,0,0)" />
  <path d="M 448 152 L 448 80" fill="none" stroke="rgb(0,0,0)" />
  <text fill="rgb(0,0,0)" font-family="sans-serif" font-size="11" font-style="normal" font-weight="normal" text-anchor="middle" textLength="14" x="508" y="121">??</text>
  <rect fill="rgb(255,255,255)" height="72" stroke="rgb(255,255,255)" width="264" x="568" y="80" />
  <path d="M 568 80 L 832 80" fill="none" stroke="rgb(0,0,0)" />
  <path d="M 832 80 L 832 152" fill="none" stroke="rgb(0,0,0)" />
  <path d="M 832 152 L 568 152" fill="none" stroke="rgb(0,0,0)" />
  <path d="M 568 152 L 568 80" fill="none" stroke="rgb(0,0,0)" />
  <text fill="rgb(0,0,0)" font-family="sans-serif" font-size="11" font-style="normal" font-weight="normal" text-anchor="middle" textLength="79" x="700" y="121">insulinCarbRatio</text>
  <rect fill="rgb(255,255,255)" height="72" stroke="rgb(255,255,255)" width="192" x="64" y="152" />
  <path d="M 64 152 L 256 152" fill="none" stroke="rgb(0,0,0)" />
  <path d="M 256 152 L 256 224" fill="none" stroke="rgb(0,0,0)" />
  <path d="M 256 224 L 64 224" fill="none" stroke="rgb(0,0,0)" />
  <path d="M 64 224 L 64 152" fill="none" stroke="rgb(0,0,0)" />
  <text fill="rgb(0,0,0)" font-family="sans-serif" font-size="11" font-style="normal" font-weight="normal" text-anchor="middle" textLength="79" x="160" y="194">insulinSensitivity</text>
  <rect fill="rgb(255,255,255)" height="72" stroke="rgb(255,255,255)" width="192" x="256" y="152" />
  <path d="M 256 152 L 448 152" fill="none" stroke="rgb(0,0,0)" />
  <path d="M 448 152 L 448 224" fill="none" stroke="rgb(0,0,0)" />
  <path d="M 448 224 L 256 224" fill="none" stroke="rgb(0,0,0)" />
  <path d="M 256 224 L 256 152" fill="none" stroke="rgb(0,0,0)" />
  <text fill="rgb(0,0,0)" font-family="sans-serif" font-size="11" font-style="normal" font-weight="normal" text-anchor="middle" textLength="66" x="352" y="194">bgTarget.low</text>
  <rect fill="rgb(255,255,255)" height="72" stroke="rgb(255,255,255)" width="192" x="448" y="152" />
  <path d="M 448 152 L 640 152" fill="none" stroke="rgb(0,0,0)" />
  <path d="M 640 152 L 640 224" fill="none" stroke="rgb(0,0,0)" />
  <path d="M 640 224 L 448 224" fill="none" stroke="rgb(0,0,0)" />
  <path d="M 448 224 L 448 152" fill="none" stroke="rgb(0,0,0)" />
  <text fill="rgb(0,0,0)" font-family="sans-serif" font-size="11" font-style="normal" font-weight="normal" text-anchor="middle" textLength="126" x="544" y="193">recommended.correction</text>
  <rect fill="rgb(255,255,255)" height="72" stroke="rgb(255,255,255)" width="192" x="64" y="224" />
  <path d="M 64 224 L 256 224" fill="none" stroke="rgb(0,0,0)" />
  <path d="M 256 224 L 256 296" fill="none" stroke="rgb(0,0,0)" />
  <path d="M 256 296 L 64 296" fill="none" stroke="rgb(0,0,0)" />
  <path d="M 64 296 L 64 224" fill="none" stroke="rgb(0,0,0)" stroke-dasharray="4" />
  <text fill="rgb(0,0,0)" font-family="sans-serif" font-size="11" font-style="normal" font-weight="normal" text-anchor="middle" textLength="98" x="160" y="265">recommended.carb</text>
  <rect fill="rgb(255,255,255)" height="72" stroke="rgb(255,255,255)" width="48" x="256" y="224" />
  <path d="M 256 224 L 304 224" fill="none" stroke="rgb(0,0,0)" />
  <path d="M 304 224 L 304 296" fill="none" stroke="rgb(0,0,0)" />
  <path d="M 304 296 L 256 296" fill="none" stroke="rgb(0,0,0)" />
  <path d="M 256 296 L 256 224" fill="none" stroke="rgb(0,0,0)" />
  <text fill="rgb(0,0,0)" font-family="sans-serif" font-size="11" font-style="normal" font-weight="normal" text-anchor="middle" textLength="14" x="280" y="265">??</text>
  <rect fill="rgb(255,255,255)" height="72" stroke="rgb(255,255,255)" width="48" x="304" y="224" />
  <path d="M 304 224 L 352 224" fill="none" stroke="rgb(0,0,0)" />
  <path d="M 352 224 L 352 296" fill="none" stroke="rgb(0,0,0)" />
  <path d="M 352 296 L 304 296" fill="none" stroke="rgb(0,0,0)" />
  <path d="M 304 296 L 304 224" fill="none" stroke="rgb(0,0,0)" />
  <g transform="rotate(270,304,296)">
    <text fill="rgb(0,0,0)" font-family="sans-serif" font-size="11" font-style="normal" font-weight="normal" text-anchor="middle" textLength="50" x="340" y="312">correction</text>
    <text fill="rgb(0,0,0)" font-family="sans-serif" font-size="11" font-style="normal" font-weight="normal" text-anchor="middle" textLength="60" x="340" y="326">two's comp</text>
    <text fill="rgb(0,0,0)" font-family="sans-serif" font-size="11" font-style="normal" font-weight="normal" text-anchor="middle" textLength="30" x="340" y="338">check</text>
  </g>
  <rect fill="rgb(255,255,255)" height="72" stroke="rgb(255,255,255)" width="96" x="352" y="224" />
  <path d="M 352 224 L 448 224" fill="none" stroke="rgb(0,0,0)" />
  <path d="M 448 224 L 448 296" fill="none" stroke="rgb(0,0,0)" />
  <path d="M 448 296 L 352 296" fill="none" stroke="rgb(0,0,0)" />
  <path d="M 352 296 L 352 224" fill="none" stroke="rgb(0,0,0)" />
  <text fill="rgb(0,0,0)" font-family="sans-serif" font-size="11" font-style="normal" font-weight="normal" text-anchor="middle" textLength="14" x="400" y="265">??</text>
  <rect fill="rgb(255,255,255)" height="72" stroke="rgb(255,255,255)" width="384" x="448" y="224" />
  <path d="M 448 224 L 832 224" fill="none" stroke="rgb(0,0,0)" />
  <path d="M 832 224 L 832 296" fill="none" stroke="rgb(0,0,0)" />
  <path d="M 832 296 L 448 296" fill="none" stroke="rgb(0,0,0)" />
  <path d="M 448 296 L 448 224" fill="none" stroke="rgb(0,0,0)" />
  <text fill="rgb(0,0,0)" font-family="sans-serif" font-size="11" font-style="normal" font-weight="normal" text-anchor="middle" textLength="73" x="640" y="265">insulinOnBoard</text>
  <rect fill="rgb(255,255,255)" height="72" stroke="rgb(255,255,255)" width="384" x="64" y="296" />
  <path d="M 64 296 L 448 296" fill="none" stroke="rgb(0,0,0)" />
  <path d="M 448 296 L 448 368" fill="none" stroke="rgb(0,0,0)" />
  <path d="M 448 368 L 64 368" fill="none" stroke="rgb(0,0,0)" />
  <path d="M 64 368 L 64 296" fill="none" stroke="rgb(0,0,0)" />
  <text fill="rgb(0,0,0)" font-family="sans-serif" font-size="11" font-style="normal" font-weight="normal" text-anchor="middle" textLength="92" x="256" y="337">recommended.net</text>
  <rect fill="rgb(255,255,255)" height="72" stroke="rgb(255,255,255)" width="192" x="448" y="296" />
  <path d="M 448 296 L 640 296" fill="none" stroke="rgb(0,0,0)" />
  <path d="M 640 296 L 640 368" fill="none" stroke="rgb(0,0,0)" />
  <path d="M 640 368 L 448 368" fill="none" stroke="rgb(0,0,0)" />
  <path d="M 448 368 L 448 296" fill="none" stroke="rgb(0,0,0)" />
  <text fill="rgb(0,0,0)" font-family="sans-serif" font-size="11" font-style="normal" font-weight="normal" text-anchor="middle" textLength="69" x="544" y="338">bgTarget.high</text>
  <rect fill="rgb(255,255,255)" height="72" stroke="rgb(255,255,255)" width="192" x="640" y="152" />
  <path d="M 640 152 L 832 152" fill="none" stroke="rgb(0,0,0)" />
  <path d="M 832 152 L 832 224" fill="none" stroke="rgb(0,0,0)" stroke-dasharray="4" />
  <path d="M 832 224 L 640 224" fill="none" stroke="rgb(0,0,0)" />
  <path d="M 640 224 L 640 152" fill="none" stroke="rgb(0,0,0)" />
  <text fill="rgb(0,0,0)" font-family="sans-serif" font-size="11" font-style="normal" font-weight="normal" text-anchor="middle" textLength="98" x="736" y="193">recommended.carb</text>
</svg>
