<?xml version='1.0' encoding='UTF-8'?>
<!DOCTYPE svg PUBLIC "-//W3C//DTD SVG 1.0//EN" "http://www.w3.org/TR/2001/REC-SVG-20010904/DTD/svg10.dtd">
<svg viewBox="0 0 1664 840" xmlns="http://www.w3.org/2000/svg" xmlns:inkspace="http://www.inkscape.org/namespaces/inkscape" xmlns:xlink="http://www.w3.org/1999/xlink">
  <defs id="defs_block">
    <filter height="1.504" id="filter_blur" inkspace:collect="always" width="1.1575" x="-0.07875" y="-0.252">
      <feGaussianBlur id="feGaussianBlur3780" inkspace:collect="always" stdDeviation="4.2" />
    </filter>
  </defs>
  <title>blockdiag</title>
  <desc>{
	colwidth = 64
	
	0-7: packet type
	8-15: ??
	
	16-55: date/time
	
	56-63: old units (bg &amp; carb)
	64-71: ??
	72-263: old carb ratios (1 byte offset, 2 bytes ratio)
	
	264-271: ??	
	272-399: old insulin sensitivities (1 byte offset, 1 byte amount)
	
	400-407: ??
	408-599: old BG targets (1 byte offset, 1 byte low, 1 byte high)
	
	600-615: ??
	
	616-623: new units (bg &amp; carb)
	624-631: ??
	632-815: new carb ratios
	
	816-823: ??
	824-951: new insulin sensitivities
	
	952-959: ??
	960-1151: new BG targets
	
	
}
</desc>
  <path d="M 64 48 L 64 80" fill="none" stroke="rgb(0,0,0)" />
  <text fill="rgb(0,0,0)" font-family="sans-serif" font-size="11" font-style="normal" font-weight="normal" text-anchor="middle" textLength="7" x="64" y="41">0</text>
  <path d="M 88 64 L 88 80" fill="none" stroke="rgb(0,0,0)" />
  <path d="M 112 64 L 112 80" fill="none" stroke="rgb(0,0,0)" />
  <path d="M 136 64 L 136 80" fill="none" stroke="rgb(0,0,0)" />
  <path d="M 160 64 L 160 80" fill="none" stroke="rgb(0,0,0)" />
  <path d="M 184 64 L 184 80" fill="none" stroke="rgb(0,0,0)" />
  <path d="M 208 64 L 208 80" fill="none" stroke="rgb(0,0,0)" />
  <path d="M 232 64 L 232 80" fill="none" stroke="rgb(0,0,0)" />
  <path d="M 256 64 L 256 80" fill="none" stroke="rgb(0,0,0)" />
  <path d="M 280 64 L 280 80" fill="none" stroke="rgb(0,0,0)" />
  <path d="M 304 64 L 304 80" fill="none" stroke="rgb(0,0,0)" />
  <path d="M 328 64 L 328 80" fill="none" stroke="rgb(0,0,0)" />
  <path d="M 352 64 L 352 80" fill="none" stroke="rgb(0,0,0)" />
  <path d="M 376 64 L 376 80" fill="none" stroke="rgb(0,0,0)" />
  <path d="M 400 64 L 400 80" fill="none" stroke="rgb(0,0,0)" />
  <path d="M 424 64 L 424 80" fill="none" stroke="rgb(0,0,0)" />
  <path d="M 448 48 L 448 80" fill="none" stroke="rgb(0,0,0)" />
  <path d="M 472 64 L 472 80" fill="none" stroke="rgb(0,0,0)" />
  <path d="M 496 64 L 496 80" fill="none" stroke="rgb(0,0,0)" />
  <path d="M 520 64 L 520 80" fill="none" stroke="rgb(0,0,0)" />
  <path d="M 544 64 L 544 80" fill="none" stroke="rgb(0,0,0)" />
  <path d="M 568 64 L 568 80" fill="none" stroke="rgb(0,0,0)" />
  <path d="M 592 64 L 592 80" fill="none" stroke="rgb(0,0,0)" />
  <path d="M 616 64 L 616 80" fill="none" stroke="rgb(0,0,0)" />
  <path d="M 640 64 L 640 80" fill="none" stroke="rgb(0,0,0)" />
  <path d="M 664 64 L 664 80" fill="none" stroke="rgb(0,0,0)" />
  <path d="M 688 64 L 688 80" fill="none" stroke="rgb(0,0,0)" />
  <path d="M 712 64 L 712 80" fill="none" stroke="rgb(0,0,0)" />
  <path d="M 736 64 L 736 80" fill="none" stroke="rgb(0,0,0)" />
  <path d="M 760 64 L 760 80" fill="none" stroke="rgb(0,0,0)" />
  <path d="M 784 64 L 784 80" fill="none" stroke="rgb(0,0,0)" />
  <path d="M 808 64 L 808 80" fill="none" stroke="rgb(0,0,0)" />
  <path d="M 832 48 L 832 80" fill="none" stroke="rgb(0,0,0)" />
  <text fill="rgb(0,0,0)" font-family="sans-serif" font-size="11" font-style="normal" font-weight="normal" text-anchor="middle" textLength="14" x="832" y="41">32</text>
  <path d="M 856 64 L 856 80" fill="none" stroke="rgb(0,0,0)" />
  <path d="M 880 64 L 880 80" fill="none" stroke="rgb(0,0,0)" />
  <path d="M 904 64 L 904 80" fill="none" stroke="rgb(0,0,0)" />
  <path d="M 928 64 L 928 80" fill="none" stroke="rgb(0,0,0)" />
  <path d="M 952 64 L 952 80" fill="none" stroke="rgb(0,0,0)" />
  <path d="M 976 64 L 976 80" fill="none" stroke="rgb(0,0,0)" />
  <path d="M 1000 64 L 1000 80" fill="none" stroke="rgb(0,0,0)" />
  <path d="M 1024 64 L 1024 80" fill="none" stroke="rgb(0,0,0)" />
  <path d="M 1048 64 L 1048 80" fill="none" stroke="rgb(0,0,0)" />
  <path d="M 1072 64 L 1072 80" fill="none" stroke="rgb(0,0,0)" />
  <path d="M 1096 64 L 1096 80" fill="none" stroke="rgb(0,0,0)" />
  <path d="M 1120 64 L 1120 80" fill="none" stroke="rgb(0,0,0)" />
  <path d="M 1144 64 L 1144 80" fill="none" stroke="rgb(0,0,0)" />
  <path d="M 1168 64 L 1168 80" fill="none" stroke="rgb(0,0,0)" />
  <path d="M 1192 64 L 1192 80" fill="none" stroke="rgb(0,0,0)" />
  <path d="M 1216 48 L 1216 80" fill="none" stroke="rgb(0,0,0)" />
  <path d="M 1240 64 L 1240 80" fill="none" stroke="rgb(0,0,0)" />
  <path d="M 1264 64 L 1264 80" fill="none" stroke="rgb(0,0,0)" />
  <path d="M 1288 64 L 1288 80" fill="none" stroke="rgb(0,0,0)" />
  <path d="M 1312 64 L 1312 80" fill="none" stroke="rgb(0,0,0)" />
  <path d="M 1336 64 L 1336 80" fill="none" stroke="rgb(0,0,0)" />
  <path d="M 1360 64 L 1360 80" fill="none" stroke="rgb(0,0,0)" />
  <path d="M 1384 64 L 1384 80" fill="none" stroke="rgb(0,0,0)" />
  <path d="M 1408 64 L 1408 80" fill="none" stroke="rgb(0,0,0)" />
  <path d="M 1432 64 L 1432 80" fill="none" stroke="rgb(0,0,0)" />
  <path d="M 1456 64 L 1456 80" fill="none" stroke="rgb(0,0,0)" />
  <path d="M 1480 64 L 1480 80" fill="none" stroke="rgb(0,0,0)" />
  <path d="M 1504 64 L 1504 80" fill="none" stroke="rgb(0,0,0)" />
  <path d="M 1528 64 L 1528 80" fill="none" stroke="rgb(0,0,0)" />
  <path d="M 1552 64 L 1552 80" fill="none" stroke="rgb(0,0,0)" />
  <path d="M 1576 64 L 1576 80" fill="none" stroke="rgb(0,0,0)" />
  <path d="M 1600 48 L 1600 80" fill="none" stroke="rgb(0,0,0)" />
  <text fill="rgb(0,0,0)" font-family="sans-serif" font-size="11" font-style="normal" font-weight="normal" text-anchor="middle" textLength="14" x="1600" y="41">64</text>
  <rect fill="rgb(255,255,255)" height="40" stroke="rgb(255,255,255)" width="192" x="64" y="80" />
  <path d="M 64 80 L 256 80" fill="none" stroke="rgb(0,0,0)" />
  <path d="M 256 80 L 256 120" fill="none" stroke="rgb(0,0,0)" />
  <path d="M 256 120 L 64 120" fill="none" stroke="rgb(0,0,0)" />
  <path d="M 64 120 L 64 80" fill="none" stroke="rgb(0,0,0)" />
  <text fill="rgb(0,0,0)" font-family="sans-serif" font-size="11" font-style="normal" font-weight="normal" text-anchor="middle" textLength="60" x="160" y="106">packet type</text>
  <rect fill="rgb(255,255,255)" height="40" stroke="rgb(255,255,255)" width="192" x="256" y="80" />
  <path d="M 256 80 L 448 80" fill="none" stroke="rgb(0,0,0)" />
  <path d="M 448 80 L 448 120" fill="none" stroke="rgb(0,0,0)" />
  <path d="M 448 120 L 256 120" fill="none" stroke="rgb(0,0,0)" />
  <path d="M 256 120 L 256 80" fill="none" stroke="rgb(0,0,0)" />
  <text fill="rgb(0,0,0)" font-family="sans-serif" font-size="11" font-style="normal" font-weight="normal" text-anchor="middle" textLength="14" x="352" y="105">??</text>
  <rect fill="rgb(255,255,255)" height="40" stroke="rgb(255,255,255)" width="960" x="448" y="80" />
  <path d="M 448 80 L 1408 80" fill="none" stroke="rgb(0,0,0)" />
  <path d="M 1408 80 L 1408 120" fill="none" stroke="rgb(0,0,0)" />
  <path d="M 1408 120 L 448 120" fill="none" stroke="rgb(0,0,0)" />
  <path d="M 448 120 L 448 80" fill="none" stroke="rgb(0,0,0)" />
  <text fill="rgb(0,0,0)" font-family="sans-serif" font-size="11" font-style="normal" font-weight="normal" text-anchor="middle" textLength="50" x="928" y="106">date/time</text>
  <rect fill="rgb(255,255,255)" height="40" stroke="rgb(255,255,255)" width="192" x="1408" y="80" />
  <path d="M 1408 80 L 1600 80" fill="none" stroke="rgb(0,0,0)" />
  <path d="M 1600 80 L 1600 120" fill="none" stroke="rgb(0,0,0)" />
  <path d="M 1600 120 L 1408 120" fill="none" stroke="rgb(0,0,0)" />
  <path d="M 1408 120 L 1408 80" fill="none" stroke="rgb(0,0,0)" />
  <text fill="rgb(0,0,0)" font-family="sans-serif" font-size="11" font-style="normal" font-weight="normal" text-anchor="middle" textLength="108" x="1504" y="106">old units (bg &amp; carb)</text>
  <rect fill="rgb(255,255,255)" height="40" stroke="rgb(255,255,255)" width="192" x="64" y="120" />
  <path d="M 64 120 L 256 120" fill="none" stroke="rgb(0,0,0)" />
  <path d="M 256 120 L 256 160" fill="none" stroke="rgb(0,0,0)" />
  <path d="M 256 160 L 64 160" fill="none" stroke="rgb(0,0,0)" />
  <path d="M 64 160 L 64 120" fill="none" stroke="rgb(0,0,0)" />
  <text fill="rgb(0,0,0)" font-family="sans-serif" font-size="11" font-style="normal" font-weight="normal" text-anchor="middle" textLength="14" x="160" y="145">??</text>
  <rect fill="rgb(255,255,255)" height="40" stroke="rgb(255,255,255)" width="192" x="64" y="240" />
  <path d="M 64 240 L 256 240" fill="none" stroke="rgb(0,0,0)" />
  <path d="M 256 240 L 256 280" fill="none" stroke="rgb(0,0,0)" />
  <path d="M 256 280 L 64 280" fill="none" stroke="rgb(0,0,0)" />
  <path d="M 64 280 L 64 240" fill="none" stroke="rgb(0,0,0)" stroke-dasharray="4" />
  <text fill="rgb(0,0,0)" font-family="sans-serif" font-size="11" font-style="normal" font-weight="normal" text-anchor="middle" textLength="187" x="160" y="259">old carb ratios (1 byte offset, 2 byte</text>
  <text fill="rgb(0,0,0)" font-family="sans-serif" font-size="11" font-style="normal" font-weight="normal" text-anchor="middle" textLength="37" x="160" y="272">s ratio)</text>
  <rect fill="rgb(255,255,255)" height="40" stroke="rgb(255,255,255)" width="192" x="256" y="240" />
  <path d="M 256 240 L 448 240" fill="none" stroke="rgb(0,0,0)" />
  <path d="M 448 240 L 448 280" fill="none" stroke="rgb(0,0,0)" />
  <path d="M 448 280 L 256 280" fill="none" stroke="rgb(0,0,0)" />
  <path d="M 256 280 L 256 240" fill="none" stroke="rgb(0,0,0)" />
  <text fill="rgb(0,0,0)" font-family="sans-serif" font-size="11" font-style="normal" font-weight="normal" text-anchor="middle" textLength="14" x="352" y="265">??</text>
  <rect fill="rgb(255,255,255)" height="40" stroke="rgb(255,255,255)" width="384" x="64" y="320" />
  <path d="M 64 320 L 448 320" fill="none" stroke="rgb(0,0,0)" />
  <path d="M 448 320 L 448 360" fill="none" stroke="rgb(0,0,0)" />
  <path d="M 448 360 L 64 360" fill="none" stroke="rgb(0,0,0)" />
  <path d="M 64 360 L 64 320" fill="none" stroke="rgb(0,0,0)" stroke-dasharray="4" />
  <text fill="rgb(0,0,0)" font-family="sans-serif" font-size="11" font-style="normal" font-weight="normal" text-anchor="middle" textLength="270" x="256" y="346">old insulin sensitivities (1 byte offset, 1 byte amount)</text>
  <rect fill="rgb(255,255,255)" height="40" stroke="rgb(255,255,255)" width="192" x="448" y="320" />
  <path d="M 448 320 L 640 320" fill="none" stroke="rgb(0,0,0)" />
  <path d="M 640 320 L 640 360" fill="none" stroke="rgb(0,0,0)" />
  <path d="M 640 360 L 448 360" fill="none" stroke="rgb(0,0,0)" />
  <path d="M 448 360 L 448 320" fill="none" stroke="rgb(0,0,0)" />
  <text fill="rgb(0,0,0)" font-family="sans-serif" font-size="11" font-style="normal" font-weight="normal" text-anchor="middle" textLength="14" x="544" y="345">??</text>
  <rect fill="rgb(255,255,255)" height="40" stroke="rgb(255,255,255)" width="576" x="64" y="440" />
  <path d="M 64 440 L 640 440" fill="none" stroke="rgb(0,0,0)" />
  <path d="M 640 440 L 640 480" fill="none" stroke="rgb(0,0,0)" />
  <path d="M 640 480 L 64 480" fill="none" stroke="rgb(0,0,0)" />
  <path d="M 64 480 L 64 440" fill="none" stroke="rgb(0,0,0)" stroke-dasharray="4" />
  <text fill="rgb(0,0,0)" font-family="sans-serif" font-size="11" font-style="normal" font-weight="normal" text-anchor="middle" textLength="279" x="352" y="466">old BG targets (1 byte offset, 1 byte low, 1 byte high)</text>
  <rect fill="rgb(255,255,255)" height="40" stroke="rgb(255,255,255)" width="384" x="640" y="440" />
  <path d="M 640 440 L 1024 440" fill="none" stroke="rgb(0,0,0)" />
  <path d="M 1024 440 L 1024 480" fill="none" stroke="rgb(0,0,0)" />
  <path d="M 1024 480 L 640 480" fill="none" stroke="rgb(0,0,0)" />
  <path d="M 640 480 L 640 440" fill="none" stroke="rgb(0,0,0)" />
  <text fill="rgb(0,0,0)" font-family="sans-serif" font-size="11" font-style="normal" font-weight="normal" text-anchor="middle" textLength="14" x="832" y="465">??</text>
  <rect fill="rgb(255,255,255)" height="40" stroke="rgb(255,255,255)" width="192" x="1024" y="440" />
  <path d="M 1024 440 L 1216 440" fill="none" stroke="rgb(0,0,0)" />
  <path d="M 1216 440 L 1216 480" fill="none" stroke="rgb(0,0,0)" />
  <path d="M 1216 480 L 1024 480" fill="none" stroke="rgb(0,0,0)" />
  <path d="M 1024 480 L 1024 440" fill="none" stroke="rgb(0,0,0)" />
  <text fill="rgb(0,0,0)" font-family="sans-serif" font-size="11" font-style="normal" font-weight="normal" text-anchor="middle" textLength="115" x="1120" y="466">new units (bg &amp; carb)</text>
  <rect fill="rgb(255,255,255)" height="40" stroke="rgb(255,255,255)" width="192" x="1216" y="440" />
  <path d="M 1216 440 L 1408 440" fill="none" stroke="rgb(0,0,0)" />
  <path d="M 1408 440 L 1408 480" fill="none" stroke="rgb(0,0,0)" />
  <path d="M 1408 480 L 1216 480" fill="none" stroke="rgb(0,0,0)" />
  <path d="M 1216 480 L 1216 440" fill="none" stroke="rgb(0,0,0)" />
  <text fill="rgb(0,0,0)" font-family="sans-serif" font-size="11" font-style="normal" font-weight="normal" text-anchor="middle" textLength="14" x="1312" y="465">??</text>
  <rect fill="rgb(255,255,255)" height="40" stroke="rgb(255,255,255)" width="1152" x="64" y="560" />
  <path d="M 64 560 L 1216 560" fill="none" stroke="rgb(0,0,0)" />
  <path d="M 1216 560 L 1216 600" fill="none" stroke="rgb(0,0,0)" />
  <path d="M 1216 600 L 64 600" fill="none" stroke="rgb(0,0,0)" />
  <path d="M 64 600 L 64 560" fill="none" stroke="rgb(0,0,0)" stroke-dasharray="4" />
  <text fill="rgb(0,0,0)" font-family="sans-serif" font-size="11" font-style="normal" font-weight="normal" text-anchor="middle" textLength="79" x="640" y="585">new carb ratios</text>
  <rect fill="rgb(255,255,255)" height="40" stroke="rgb(255,255,255)" width="192" x="1216" y="560" />
  <path d="M 1216 560 L 1408 560" fill="none" stroke="rgb(0,0,0)" />
  <path d="M 1408 560 L 1408 600" fill="none" stroke="rgb(0,0,0)" />
  <path d="M 1408 600 L 1216 600" fill="none" stroke="rgb(0,0,0)" />
  <path d="M 1216 600 L 1216 560" fill="none" stroke="rgb(0,0,0)" />
  <text fill="rgb(0,0,0)" font-family="sans-serif" font-size="11" font-style="normal" font-weight="normal" text-anchor="middle" textLength="14" x="1312" y="585">??</text>
  <rect fill="rgb(255,255,255)" height="40" stroke="rgb(255,255,255)" width="1344" x="64" y="640" />
  <path d="M 64 640 L 1408 640" fill="none" stroke="rgb(0,0,0)" />
  <path d="M 1408 640 L 1408 680" fill="none" stroke="rgb(0,0,0)" />
  <path d="M 1408 680 L 64 680" fill="none" stroke="rgb(0,0,0)" />
  <path d="M 64 680 L 64 640" fill="none" stroke="rgb(0,0,0)" stroke-dasharray="4" />
  <text fill="rgb(0,0,0)" font-family="sans-serif" font-size="11" font-style="normal" font-weight="normal" text-anchor="middle" textLength="114" x="736" y="665">new insulin sensitivities</text>
  <rect fill="rgb(255,255,255)" height="40" stroke="rgb(255,255,255)" width="192" x="1408" y="640" />
  <path d="M 1408 640 L 1600 640" fill="none" stroke="rgb(0,0,0)" />
  <path d="M 1600 640 L 1600 680" fill="none" stroke="rgb(0,0,0)" />
  <path d="M 1600 680 L 1408 680" fill="none" stroke="rgb(0,0,0)" />
  <path d="M 1408 680 L 1408 640" fill="none" stroke="rgb(0,0,0)" />
  <text fill="rgb(0,0,0)" font-family="sans-serif" font-size="11" font-style="normal" font-weight="normal" text-anchor="middle" textLength="14" x="1504" y="665">??</text>
  <rect fill="rgb(255,255,255)" height="40" stroke="rgb(255,255,255)" width="1536" x="64" y="760" />
  <path d="M 64 760 L 1600 760" fill="none" stroke="rgb(0,0,0)" />
  <path d="M 1600 760 L 1600 800" fill="none" stroke="rgb(0,0,0)" />
  <path d="M 1600 800 L 64 800" fill="none" stroke="rgb(0,0,0)" />
  <path d="M 64 800 L 64 760" fill="none" stroke="rgb(0,0,0)" stroke-dasharray="4" />
  <text fill="rgb(0,0,0)" font-family="sans-serif" font-size="11" font-style="normal" font-weight="normal" text-anchor="middle" textLength="80" x="832" y="787">new BG targets</text>
  <rect fill="rgb(255,255,255)" height="40" stroke="rgb(255,255,255)" width="1344" x="256" y="120" />
  <path d="M 256 120 L 1600 120" fill="none" stroke="rgb(0,0,0)" />
  <path d="M 1600 120 L 1600 160" fill="none" stroke="rgb(0,0,0)" stroke-dasharray="4" />
  <path d="M 1600 160 L 256 160" fill="none" stroke="rgb(0,0,0)" />
  <path d="M 256 160 L 256 120" fill="none" stroke="rgb(0,0,0)" />
  <text fill="rgb(0,0,0)" font-family="sans-serif" font-size="11" font-style="normal" font-weight="normal" text-anchor="middle" textLength="224" x="928" y="146">old carb ratios (1 byte offset, 2 bytes ratio)</text>
  <rect fill="rgb(255,255,255)" height="40" stroke="rgb(255,255,255)" width="1536" x="64" y="160" />
  <path d="M 64 160 L 1600 160" fill="none" stroke="rgb(0,0,0)" />
  <path d="M 1600 160 L 1600 200" fill="none" stroke="rgb(0,0,0)" stroke-dasharray="4" />
  <path d="M 1600 200 L 64 200" fill="none" stroke="rgb(0,0,0)" />
  <path d="M 64 200 L 64 160" fill="none" stroke="rgb(0,0,0)" stroke-dasharray="4" />
  <text fill="rgb(0,0,0)" font-family="sans-serif" font-size="11" font-style="normal" font-weight="normal" text-anchor="middle" textLength="224" x="832" y="186">old carb ratios (1 byte offset, 2 bytes ratio)</text>
  <rect fill="rgb(255,255,255)" height="40" stroke="rgb(255,255,255)" width="1536" x="64" y="200" />
  <path d="M 64 200 L 1600 200" fill="none" stroke="rgb(0,0,0)" />
  <path d="M 1600 200 L 1600 240" fill="none" stroke="rgb(0,0,0)" stroke-dasharray="4" />
  <path d="M 1600 240 L 64 240" fill="none" stroke="rgb(0,0,0)" />
  <path d="M 64 240 L 64 200" fill="none" stroke="rgb(0,0,0)" stroke-dasharray="4" />
  <text fill="rgb(0,0,0)" font-family="sans-serif" font-size="11" font-style="normal" font-weight="normal" text-anchor="middle" textLength="224" x="832" y="226">old carb ratios (1 byte offset, 2 bytes ratio)</text>
  <rect fill="rgb(255,255,255)" height="40" stroke="rgb(255,255,255)" width="1152" x="448" y="240" />
  <path d="M 448 240 L 1600 240" fill="none" stroke="rgb(0,0,0)" />
  <path d="M 1600 240 L 1600 280" fill="none" stroke="rgb(0,0,0)" stroke-dasharray="4" />
  <path d="M 1600 280 L 448 280" fill="none" stroke="rgb(0,0,0)" />
  <path d="M 448 280 L 448 240" fill="none" stroke="rgb(0,0,0)" />
  <text fill="rgb(0,0,0)" font-family="sans-serif" font-size="11" font-style="normal" font-weight="normal" text-anchor="middle" textLength="270" x="1024" y="266">old insulin sensitivities (1 byte offset, 1 byte amount)</text>
  <rect fill="rgb(255,255,255)" height="40" stroke="rgb(255,255,255)" width="1536" x="64" y="280" />
  <path d="M 64 280 L 1600 280" fill="none" stroke="rgb(0,0,0)" />
  <path d="M 1600 280 L 1600 320" fill="none" stroke="rgb(0,0,0)" stroke-dasharray="4" />
  <path d="M 1600 320 L 64 320" fill="none" stroke="rgb(0,0,0)" />
  <path d="M 64 320 L 64 280" fill="none" stroke="rgb(0,0,0)" stroke-dasharray="4" />
  <text fill="rgb(0,0,0)" font-family="sans-serif" font-size="11" font-style="normal" font-weight="normal" text-anchor="middle" textLength="270" x="832" y="306">old insulin sensitivities (1 byte offset, 1 byte amount)</text>
  <rect fill="rgb(255,255,255)" height="40" stroke="rgb(255,255,255)" width="960" x="640" y="320" />
  <path d="M 640 320 L 1600 320" fill="none" stroke="rgb(0,0,0)" />
  <path d="M 1600 320 L 1600 360" fill="none" stroke="rgb(0,0,0)" stroke-dasharray="4" />
  <path d="M 1600 360 L 640 360" fill="none" stroke="rgb(0,0,0)" />
  <path d="M 640 360 L 640 320" fill="none" stroke="rgb(0,0,0)" />
  <text fill="rgb(0,0,0)" font-family="sans-serif" font-size="11" font-style="normal" font-weight="normal" text-anchor="middle" textLength="279" x="1120" y="346">old BG targets (1 byte offset, 1 byte low, 1 byte high)</text>
  <rect fill="rgb(255,255,255)" height="40" stroke="rgb(255,255,255)" width="1536" x="64" y="360" />
  <path d="M 64 360 L 1600 360" fill="none" stroke="rgb(0,0,0)" />
  <path d="M 1600 360 L 1600 400" fill="none" stroke="rgb(0,0,0)" stroke-dasharray="4" />
  <path d="M 1600 400 L 64 400" fill="none" stroke="rgb(0,0,0)" />
  <path d="M 64 400 L 64 360" fill="none" stroke="rgb(0,0,0)" stroke-dasharray="4" />
  <text fill="rgb(0,0,0)" font-family="sans-serif" font-size="11" font-style="normal" font-weight="normal" text-anchor="middle" textLength="279" x="832" y="386">old BG targets (1 byte offset, 1 byte low, 1 byte high)</text>
  <rect fill="rgb(255,255,255)" height="40" stroke="rgb(255,255,255)" width="1536" x="64" y="400" />
  <path d="M 64 400 L 1600 400" fill="none" stroke="rgb(0,0,0)" />
  <path d="M 1600 400 L 1600 440" fill="none" stroke="rgb(0,0,0)" stroke-dasharray="4" />
  <path d="M 1600 440 L 64 440" fill="none" stroke="rgb(0,0,0)" />
  <path d="M 64 440 L 64 400" fill="none" stroke="rgb(0,0,0)" stroke-dasharray="4" />
  <text fill="rgb(0,0,0)" font-family="sans-serif" font-size="11" font-style="normal" font-weight="normal" text-anchor="middle" textLength="279" x="832" y="426">old BG targets (1 byte offset, 1 byte low, 1 byte high)</text>
  <rect fill="rgb(255,255,255)" height="40" stroke="rgb(255,255,255)" width="192" x="1408" y="440" />
  <path d="M 1408 440 L 1600 440" fill="none" stroke="rgb(0,0,0)" />
  <path d="M 1600 440 L 1600 480" fill="none" stroke="rgb(0,0,0)" stroke-dasharray="4" />
  <path d="M 1600 480 L 1408 480" fill="none" stroke="rgb(0,0,0)" />
  <path d="M 1408 480 L 1408 440" fill="none" stroke="rgb(0,0,0)" />
  <text fill="rgb(0,0,0)" font-family="sans-serif" font-size="11" font-style="normal" font-weight="normal" text-anchor="middle" textLength="79" x="1504" y="465">new carb ratios</text>
  <rect fill="rgb(255,255,255)" height="40" stroke="rgb(255,255,255)" width="1536" x="64" y="480" />
  <path d="M 64 480 L 1600 480" fill="none" stroke="rgb(0,0,0)" />
  <path d="M 1600 480 L 1600 520" fill="none" stroke="rgb(0,0,0)" stroke-dasharray="4" />
  <path d="M 1600 520 L 64 520" fill="none" stroke="rgb(0,0,0)" />
  <path d="M 64 520 L 64 480" fill="none" stroke="rgb(0,0,0)" stroke-dasharray="4" />
  <text fill="rgb(0,0,0)" font-family="sans-serif" font-size="11" font-style="normal" font-weight="normal" text-anchor="middle" textLength="79" x="832" y="505">new carb ratios</text>
  <rect fill="rgb(255,255,255)" height="40" stroke="rgb(255,255,255)" width="1536" x="64" y="520" />
  <path d="M 64 520 L 1600 520" fill="none" stroke="rgb(0,0,0)" />
  <path d="M 1600 520 L 1600 560" fill="none" stroke="rgb(0,0,0)" stroke-dasharray="4" />
  <path d="M 1600 560 L 64 560" fill="none" stroke="rgb(0,0,0)" />
  <path d="M 64 560 L 64 520" fill="none" stroke="rgb(0,0,0)" stroke-dasharray="4" />
  <text fill="rgb(0,0,0)" font-family="sans-serif" font-size="11" font-style="normal" font-weight="normal" text-anchor="middle" textLength="79" x="832" y="545">new carb ratios</text>
  <rect fill="rgb(255,255,255)" height="40" stroke="rgb(255,255,255)" width="192" x="1408" y="560" />
  <path d="M 1408 560 L 1600 560" fill="none" stroke="rgb(0,0,0)" />
  <path d="M 1600 560 L 1600 600" fill="none" stroke="rgb(0,0,0)" stroke-dasharray="4" />
  <path d="M 1600 600 L 1408 600" fill="none" stroke="rgb(0,0,0)" />
  <path d="M 1408 600 L 1408 560" fill="none" stroke="rgb(0,0,0)" />
  <text fill="rgb(0,0,0)" font-family="sans-serif" font-size="11" font-style="normal" font-weight="normal" text-anchor="middle" textLength="114" x="1504" y="585">new insulin sensitivities</text>
  <rect fill="rgb(255,255,255)" height="40" stroke="rgb(255,255,255)" width="1536" x="64" y="600" />
  <path d="M 64 600 L 1600 600" fill="none" stroke="rgb(0,0,0)" />
  <path d="M 1600 600 L 1600 640" fill="none" stroke="rgb(0,0,0)" stroke-dasharray="4" />
  <path d="M 1600 640 L 64 640" fill="none" stroke="rgb(0,0,0)" />
  <path d="M 64 640 L 64 600" fill="none" stroke="rgb(0,0,0)" stroke-dasharray="4" />
  <text fill="rgb(0,0,0)" font-family="sans-serif" font-size="11" font-style="normal" font-weight="normal" text-anchor="middle" textLength="114" x="832" y="625">new insulin sensitivities</text>
  <rect fill="rgb(255,255,255)" height="40" stroke="rgb(255,255,255)" width="1536" x="64" y="680" />
  <path d="M 64 680 L 1600 680" fill="none" stroke="rgb(0,0,0)" />
  <path d="M 1600 680 L 1600 720" fill="none" stroke="rgb(0,0,0)" stroke-dasharray="4" />
  <path d="M 1600 720 L 64 720" fill="none" stroke="rgb(0,0,0)" />
  <path d="M 64 720 L 64 680" fill="none" stroke="rgb(0,0,0)" />
  <text fill="rgb(0,0,0)" font-family="sans-serif" font-size="11" font-style="normal" font-weight="normal" text-anchor="middle" textLength="80" x="832" y="707">new BG targets</text>
  <rect fill="rgb(255,255,255)" height="40" stroke="rgb(255,255,255)" width="1536" x="64" y="720" />
  <path d="M 64 720 L 1600 720" fill="none" stroke="rgb(0,0,0)" />
  <path d="M 1600 720 L 1600 760" fill="none" stroke="rgb(0,0,0)" stroke-dasharray="4" />
  <path d="M 1600 760 L 64 760" fill="none" stroke="rgb(0,0,0)" />
  <path d="M 64 760 L 64 720" fill="none" stroke="rgb(0,0,0)" stroke-dasharray="4" />
  <text fill="rgb(0,0,0)" font-family="sans-serif" font-size="11" font-style="normal" font-weight="normal" text-anchor="middle" textLength="80" x="832" y="747">new BG targets</text>
</svg>
